<svg width="231" height="72" viewBox="0 0 231 72" fill="none" xmlns="http://www.w3.org/2000/svg">
<path d="M103.222 22.9531C103.836 22.9531 104.34 23.1695 104.773 23.6023C105.206 24.0351 105.422 24.54 105.422 25.1531C105.422 25.7662 105.206 26.2711 104.773 26.7039C104.34 27.1367 103.836 27.3531 103.222 27.3531H94.4586C91.4292 27.3531 88.8685 28.435 86.7046 30.5629C84.5768 32.6907 83.4948 35.2874 83.4948 38.3169C83.4948 41.3464 84.5768 43.907 86.7046 46.0709C88.8325 48.1988 91.4292 49.2807 94.4586 49.2807H103.222C103.836 49.2807 104.34 49.4971 104.773 49.9299C105.206 50.3627 105.422 50.8676 105.422 51.4807C105.422 52.0938 105.206 52.5987 104.773 53.0315C104.34 53.4643 103.836 53.6807 103.222 53.6807H94.4586C90.239 53.6807 86.6325 52.202 83.6391 49.2086C80.6457 46.2152 79.167 42.6087 79.167 38.389C79.167 34.1694 80.6457 30.5629 83.6391 27.5695C86.6325 24.5761 90.239 23.0974 94.4586 23.0974H103.222V22.9531Z" fill="#222957"/>
<path d="M103.222 54.1475H94.4585C90.0946 54.1475 86.3078 52.5967 83.2423 49.4951C80.1406 46.4296 78.5898 42.6427 78.5898 38.2788C78.5898 33.9149 80.1406 30.1281 83.2423 27.0626C86.3439 23.961 90.0946 22.4102 94.4585 22.4102H103.222C103.98 22.4102 104.629 22.6987 105.17 23.2036C105.711 23.7446 105.963 24.3937 105.963 25.1511C105.963 25.9085 105.675 26.5577 105.17 27.0986C104.629 27.6396 103.98 27.8921 103.222 27.8921H94.4585C91.6094 27.8921 89.1209 28.9019 87.1012 30.9215C85.0816 32.9412 84.0718 35.4297 84.0718 38.2788C84.0718 41.128 85.0816 43.6165 87.1012 45.6361C89.1209 47.6558 91.6094 48.6656 94.4585 48.6656H103.222C103.98 48.6656 104.629 48.9541 105.17 49.459C105.711 50 105.963 50.6492 105.963 51.4066C105.963 52.1639 105.675 52.8131 105.17 53.3541C104.593 53.859 103.944 54.1475 103.222 54.1475ZM94.4585 23.4921C90.3832 23.4921 86.8848 24.9347 83.9996 27.8199C81.1144 30.7051 79.6718 34.2035 79.6718 38.2788C79.6718 42.3542 81.1144 45.8525 83.9996 48.7377C86.8848 51.623 90.3832 53.0656 94.4585 53.0656H103.222C103.691 53.0656 104.052 52.9213 104.376 52.5967C104.701 52.2721 104.845 51.8754 104.845 51.4426C104.845 51.0098 104.701 50.6131 104.376 50.2885C104.052 49.964 103.655 49.8197 103.222 49.8197H94.4585C91.2848 49.8197 88.5799 48.7017 86.3439 46.4656C84.1078 44.2296 82.9898 41.4886 82.9898 38.351C82.9898 35.1772 84.1078 32.4723 86.3439 30.2363C88.5799 28.0003 91.3209 26.8822 94.4585 26.8822H103.222C103.691 26.8822 104.052 26.738 104.376 26.4134C104.701 26.0888 104.845 25.6921 104.845 25.2593C104.845 24.8265 104.701 24.4298 104.376 24.1052C104.052 23.7806 103.655 23.6364 103.222 23.6364H94.4585V23.4921Z" fill="#222751"/>
<path d="M131.714 32.0116C134.167 34.464 135.429 37.4574 135.429 40.9558C135.429 44.4541 134.203 47.4475 131.714 49.8999C129.262 52.3523 126.269 53.6146 122.77 53.6146C119.272 53.6146 116.278 52.3884 113.826 49.8999C111.374 47.4475 110.111 44.4541 110.111 40.9558C110.111 37.4574 111.338 34.464 113.826 32.0116C116.278 29.5592 119.272 28.2969 122.77 28.2969C126.269 28.2969 129.262 29.5231 131.714 32.0116ZM122.77 31.9034C120.282 31.9034 118.154 32.769 116.387 34.5361C114.619 36.3033 113.754 38.4312 113.754 40.9197C113.754 43.4082 114.619 45.536 116.387 47.3032C118.154 49.0704 120.282 49.936 122.77 49.936C125.259 49.936 127.387 49.0704 129.154 47.3032C130.921 45.536 131.787 43.4082 131.787 40.9197C131.787 38.4312 130.921 36.3033 129.154 34.5361C127.387 32.805 125.259 31.9034 122.77 31.9034Z" fill="#222957"/>
<path d="M122.769 54.1497C119.126 54.1497 115.988 52.8514 113.428 50.2907C110.867 47.7301 109.569 44.5924 109.569 40.9499C109.569 37.3073 110.867 34.1696 113.428 31.609C115.988 29.0483 119.126 27.75 122.769 27.75C126.411 27.75 129.549 29.0483 132.11 31.609C134.67 34.1696 135.969 37.3073 135.969 40.9499C135.969 44.5924 134.67 47.7301 132.11 50.2907C129.549 52.8514 126.411 54.1497 122.769 54.1497ZM122.769 28.832C119.451 28.832 116.565 30.0221 114.221 32.3663C111.877 34.7106 110.687 37.5958 110.687 40.9138C110.687 44.2318 111.877 47.117 114.221 49.4612C116.565 51.8055 119.451 52.9956 122.769 52.9956C126.087 52.9956 128.972 51.8055 131.316 49.4612C133.66 47.117 134.851 44.2318 134.851 40.9138C134.851 37.5958 133.66 34.7106 131.316 32.3663C128.972 30.0221 126.087 28.832 122.769 28.832ZM122.769 50.5071C120.136 50.5071 117.864 49.5694 115.988 47.694C114.113 45.8187 113.175 43.5465 113.175 40.9138C113.175 38.281 114.113 36.0089 115.988 34.1335C117.864 32.2581 120.136 31.3205 122.769 31.3205C125.401 31.3205 127.674 32.2581 129.549 34.1335C131.424 36.0089 132.362 38.281 132.362 40.9138C132.362 43.5465 131.424 45.8187 129.549 47.694C127.674 49.5694 125.401 50.5071 122.769 50.5071ZM122.769 32.4385C120.388 32.4385 118.441 33.268 116.782 34.927C115.123 36.586 114.293 38.5696 114.293 40.9138C114.293 43.2941 115.123 45.2416 116.782 46.9006C118.441 48.5596 120.424 49.3891 122.769 49.3891C125.149 49.3891 127.097 48.5596 128.756 46.9006C130.415 45.2416 131.244 43.258 131.244 40.9138C131.244 38.5335 130.415 36.586 128.756 34.927C127.097 33.268 125.149 32.4385 122.769 32.4385Z" fill="#222751"/>
<path d="M149.35 28.293C152.848 28.293 155.842 29.5192 158.294 32.0077C160.746 34.4601 162.009 37.4535 162.009 40.9518C162.009 44.4502 160.782 47.4436 158.294 49.896C155.842 52.3484 152.848 53.6107 149.35 53.6107H142.137C141.632 53.6107 141.235 53.4304 140.874 53.0697C140.514 52.7091 140.333 52.2763 140.333 51.8075V30.1323C140.333 29.6274 140.514 29.2307 140.874 28.87C141.235 28.5094 141.668 28.329 142.137 28.329H149.35V28.293ZM149.35 49.9681C151.838 49.9681 153.966 49.1026 155.733 47.3354C157.501 45.5682 158.366 43.4403 158.366 40.9518C158.366 38.4634 157.501 36.3355 155.733 34.5683C153.966 32.8011 151.838 31.9356 149.35 31.9356H143.94V50.0042H149.35V49.9681Z" fill="#222957"/>
<path d="M149.35 54.1488H142.137C141.488 54.1488 140.947 53.9324 140.478 53.4636C140.009 52.9947 139.793 52.4537 139.793 51.8046V30.1294C139.793 29.4802 140.009 28.9392 140.478 28.4704C140.947 28.0015 141.488 27.7852 142.137 27.7852H149.35C152.993 27.7852 156.13 29.0835 158.691 31.6441C161.252 34.2048 162.55 37.3424 162.55 40.985C162.55 44.6276 161.252 47.7653 158.691 50.3259C156.13 52.8505 152.993 54.1488 149.35 54.1488ZM142.137 28.831C141.777 28.831 141.488 28.9392 141.236 29.1917C140.983 29.4442 140.875 29.7327 140.875 30.0933V51.7685C140.875 52.1292 140.983 52.4177 141.236 52.6701C141.488 52.9226 141.777 53.0308 142.137 53.0308H149.35C152.668 53.0308 155.553 51.8406 157.898 49.4964C160.242 47.1521 161.432 44.2669 161.432 40.9489C161.432 37.6309 160.242 34.7457 157.898 32.4015C155.553 30.0573 152.668 28.8671 149.35 28.8671H142.137V28.831ZM149.35 50.5062H143.363V31.3556H149.35C151.983 31.3556 154.255 32.2933 156.131 34.1687C158.006 36.0441 158.944 38.3162 158.944 40.9489C158.944 43.5817 158.006 45.8538 156.131 47.7292C154.255 49.5685 151.983 50.5062 149.35 50.5062ZM144.481 49.4243H149.35C151.731 49.4243 153.678 48.5948 155.337 46.9358C156.996 45.2768 157.826 43.2932 157.826 40.9489C157.826 38.5686 156.996 36.6211 155.337 34.9621C153.678 33.3031 151.694 32.4736 149.35 32.4736H144.481V49.4243Z" fill="#222751"/>
<path d="M166.373 30.0962C166.373 29.5913 166.553 29.1946 166.914 28.8339C167.274 28.4733 167.707 28.293 168.176 28.293C168.645 28.293 169.077 28.4733 169.438 28.8339C169.799 29.1946 169.979 29.6274 169.979 30.0962V51.7714C169.979 52.2763 169.799 52.673 169.438 53.0337C169.077 53.3943 168.645 53.5747 168.176 53.5747C167.707 53.5747 167.274 53.3943 166.914 53.0337C166.553 52.673 166.373 52.2402 166.373 51.7714V30.0962Z" fill="#222957"/>
<path d="M168.175 54.1488C167.526 54.1488 166.985 53.9324 166.516 53.4636C166.047 52.9947 165.831 52.4537 165.831 51.8046V30.1294C165.831 29.4802 166.047 28.9392 166.516 28.4704C166.985 28.0015 167.526 27.7852 168.175 27.7852C168.824 27.7852 169.365 28.0015 169.834 28.4704C170.303 28.9392 170.52 29.4802 170.52 30.1294V51.8046C170.52 52.4537 170.303 52.9947 169.834 53.4636C169.365 53.9324 168.824 54.1488 168.175 54.1488ZM168.175 28.831C167.815 28.831 167.526 28.9392 167.274 29.1917C167.021 29.4442 166.913 29.7327 166.913 30.0933V51.7685C166.913 52.1292 167.021 52.4177 167.274 52.6701C167.526 52.9226 167.815 53.0308 168.175 53.0308C168.536 53.0308 168.824 52.9226 169.077 52.6701C169.329 52.4177 169.438 52.1292 169.438 51.7685V30.0933C169.438 29.7327 169.329 29.4442 169.077 29.1917C168.788 28.9392 168.5 28.831 168.175 28.831Z" fill="#222751"/>
<path d="M198.94 22.9492C199.553 22.9492 200.058 23.1656 200.491 23.5984C200.924 24.0312 201.14 24.5361 201.14 25.1492C201.14 25.7623 200.924 26.2672 200.491 26.7C200.058 27.1328 199.553 27.3492 198.94 27.3492H190.176C187.147 27.3492 184.586 28.4311 182.422 30.559C180.295 32.6868 179.213 35.2835 179.213 38.313C179.213 41.3425 180.295 43.9031 182.422 46.067C184.55 48.1948 187.147 49.2768 190.176 49.2768H196.74V40.513H190.176C189.563 40.513 189.058 40.2966 188.626 39.8638C188.193 39.431 187.976 38.9261 187.976 38.313C187.976 37.6999 188.193 37.195 188.626 36.7622C189.058 36.3294 189.563 36.113 190.176 36.113H198.94C199.553 36.113 200.058 36.3294 200.491 36.7622C200.924 37.195 201.14 37.6999 201.14 38.313V51.4407C201.14 52.0538 200.924 52.5587 200.491 52.9915C200.058 53.4243 199.553 53.6407 198.94 53.6407H190.176C185.957 53.6407 182.35 52.162 179.357 49.1686C176.363 46.1752 174.885 42.5687 174.885 38.3491C174.885 34.1294 176.363 30.5229 179.357 27.5295C182.35 24.5361 185.957 23.0574 190.176 23.0574H198.94V22.9492Z" fill="#9F1C56"/>
<path d="M198.941 53.8574H190.177C185.885 53.8574 182.171 52.3066 179.141 49.2772C176.112 46.2477 174.561 42.533 174.561 38.2412C174.561 33.9495 176.112 30.2348 179.141 27.2053C182.171 24.1758 185.885 22.625 190.177 22.625H198.941C199.626 22.625 200.203 22.8775 200.672 23.3463C201.141 23.8152 201.394 24.4283 201.394 25.0774C201.394 25.7627 201.141 26.3397 200.672 26.8086C200.203 27.2774 199.59 27.5299 198.941 27.5299H190.177C187.256 27.5299 184.695 28.5758 182.64 30.6675C180.548 32.7593 179.502 35.2839 179.502 38.2052C179.502 41.1264 180.548 43.6871 182.64 45.7428C184.731 47.8346 187.256 48.8805 190.177 48.8805H196.453V40.6576H190.177C189.492 40.6576 188.915 40.4051 188.446 39.9363C187.977 39.4674 187.725 38.8543 187.725 38.2052C187.725 37.5199 187.977 36.9429 188.446 36.474C188.915 36.0052 189.528 35.7527 190.177 35.7527H198.941C199.626 35.7527 200.203 36.0052 200.672 36.474C201.141 36.9429 201.394 37.556 201.394 38.2052V51.3329C201.394 52.0181 201.141 52.5952 200.672 53.064C200.203 53.605 199.626 53.8574 198.941 53.8574ZM190.213 23.202C186.066 23.202 182.495 24.6807 179.574 27.602C176.653 30.5233 175.174 34.0937 175.174 38.2412C175.174 42.3887 176.653 45.9592 179.574 48.8805C182.495 51.8017 186.066 53.2804 190.213 53.2804H198.977C199.518 53.2804 199.951 53.1001 200.312 52.7034C200.708 52.3066 200.889 51.8739 200.889 51.3689V38.2412C200.889 37.7003 200.708 37.2675 200.312 36.9068C199.915 36.5462 199.482 36.3298 198.977 36.3298H190.213C189.672 36.3298 189.24 36.5101 188.879 36.9068C188.482 37.3035 188.302 37.7363 188.302 38.2412C188.302 38.7822 188.482 39.215 188.879 39.5756C189.276 39.9723 189.708 40.1527 190.213 40.1527H197.066V49.4575H190.213C187.148 49.4575 184.479 48.3395 182.279 46.1756C180.115 44.0117 178.997 41.3428 178.997 38.2412C178.997 35.1757 180.115 32.5069 182.279 30.3069C184.443 28.143 187.112 27.025 190.213 27.025H198.977C199.518 27.025 199.951 26.8446 200.312 26.4479C200.708 26.0512 200.889 25.6184 200.889 25.1135C200.889 24.5725 200.708 24.1397 200.312 23.7791C199.915 23.3824 199.482 23.202 198.977 23.202H190.213V23.202Z" fill="#9F1C56"/>
<path d="M226.925 32.0077C229.378 34.4601 230.64 37.4535 230.64 40.9518C230.64 44.4502 229.414 47.4436 226.925 49.896C224.473 52.3484 221.479 53.6107 217.981 53.6107C214.483 53.6107 211.489 52.3845 209.037 49.896C206.585 47.4436 205.322 44.4502 205.322 40.9518C205.322 37.4535 206.548 34.4601 209.037 32.0077C211.489 29.5552 214.483 28.293 217.981 28.293C221.479 28.293 224.437 29.5192 226.925 32.0077ZM217.981 31.8995C215.493 31.8995 213.365 32.765 211.598 34.5322C209.83 36.2994 208.965 38.4273 208.965 40.9158C208.965 43.4043 209.83 45.5321 211.598 47.2993C213.365 49.0665 215.493 49.9321 217.981 49.9321C220.47 49.9321 222.598 49.0665 224.365 47.2993C226.132 45.5321 226.997 43.4043 226.997 40.9158C226.997 38.4273 226.132 36.2994 224.365 34.5322C222.598 32.8011 220.47 31.8995 217.981 31.8995Z" fill="#9F1C56"/>
<path d="M217.981 53.8617C214.411 53.8617 211.345 52.5995 208.857 50.0749C206.332 47.5503 205.07 44.4848 205.07 40.9504C205.07 37.38 206.332 34.3144 208.857 31.8259C211.381 29.3013 214.447 28.0391 217.981 28.0391C221.516 28.0391 224.617 29.3013 227.106 31.8259C229.594 34.3505 230.892 37.416 230.892 40.9504C230.892 44.5209 229.63 47.5864 227.106 50.0749C224.581 52.5995 221.516 53.8617 217.981 53.8617ZM217.981 28.58C214.591 28.58 211.634 29.8063 209.217 32.1866C206.801 34.6029 205.611 37.5242 205.611 40.9504C205.611 44.3405 206.837 47.2979 209.217 49.7142C211.634 52.1306 214.555 53.3208 217.981 53.3208C221.371 53.3208 224.329 52.0945 226.745 49.7142C229.161 47.2979 230.352 44.3766 230.352 40.9504C230.352 37.5603 229.125 34.6029 226.745 32.1866C224.329 29.7702 221.371 28.58 217.981 28.58ZM217.981 50.2552C215.421 50.2552 213.221 49.3536 211.417 47.5143C209.614 45.711 208.676 43.475 208.676 40.9504C208.676 38.3898 209.578 36.1898 211.417 34.3865C213.221 32.5833 215.457 31.6456 217.981 31.6456C220.506 31.6456 222.742 32.5472 224.545 34.3865C226.348 36.1898 227.286 38.4258 227.286 40.9504C227.286 43.511 226.384 45.711 224.545 47.5143C222.706 49.3175 220.542 50.2552 217.981 50.2552ZM217.981 32.1866C215.565 32.1866 213.473 33.0521 211.778 34.7472C210.083 36.4423 209.217 38.534 209.217 40.9504C209.217 43.3668 210.083 45.4585 211.778 47.1536C213.473 48.8487 215.565 49.7142 217.981 49.7142C220.398 49.7142 222.489 48.8487 224.184 47.1536C225.879 45.4585 226.745 43.3668 226.745 40.9504C226.745 38.534 225.879 36.4783 224.184 34.7472C222.453 33.0521 220.361 32.1866 217.981 32.1866Z" fill="#9F1C56"/>
<path d="M123.129 64.9658C123.057 64.9658 122.949 64.9658 122.84 64.9658C122.732 64.9658 122.624 64.9658 122.48 64.9298C122.372 64.9298 122.227 64.8937 122.119 64.8576C122.011 64.8216 121.867 64.7855 121.758 64.7494V66.5527C121.758 66.6248 121.758 66.6609 121.722 66.697C121.722 66.733 121.686 66.7691 121.65 66.7691C121.614 66.8051 121.578 66.8051 121.542 66.8051C121.506 66.8051 121.434 66.8051 121.398 66.8051C121.326 66.8051 121.217 66.8051 121.145 66.8051C121.037 66.8051 120.965 66.7691 120.857 66.733C120.785 66.697 120.713 66.6609 120.64 66.6248C120.568 66.5888 120.532 66.5166 120.532 66.4084V61.179C120.532 61.0708 120.568 60.9626 120.64 60.8544C120.713 60.7823 120.821 60.6741 120.965 60.638C121.109 60.5659 121.254 60.5298 121.434 60.4577C121.614 60.4216 121.795 60.3855 121.975 60.3495C122.155 60.3134 122.372 60.3134 122.552 60.2773C122.768 60.2773 122.949 60.2773 123.129 60.2773C123.454 60.2773 123.742 60.3495 123.958 60.4577C124.175 60.5659 124.355 60.7462 124.463 60.9626C124.572 61.179 124.68 61.4314 124.716 61.72C124.752 62.0085 124.788 62.3331 124.788 62.6937V62.7298C124.788 63.0183 124.752 63.3068 124.716 63.5593C124.68 63.8117 124.572 64.0642 124.463 64.2445C124.355 64.4248 124.175 64.6052 123.958 64.7134C123.742 64.9298 123.454 64.9658 123.129 64.9658ZM121.758 63.6314C121.758 63.7035 121.795 63.7396 121.867 63.7757C121.939 63.8117 122.011 63.8478 122.119 63.8478C122.227 63.8839 122.335 63.8839 122.444 63.8839C122.552 63.8839 122.696 63.9199 122.804 63.9199C122.949 63.9199 123.057 63.9199 123.165 63.9199C123.273 63.9199 123.345 63.8478 123.381 63.8117C123.454 63.7396 123.49 63.6675 123.526 63.5232C123.562 63.415 123.562 63.2347 123.562 63.0544V62.5495C123.562 62.3331 123.562 62.1888 123.562 62.0085C123.562 61.8642 123.526 61.72 123.454 61.6478C123.381 61.5396 123.309 61.4675 123.201 61.4314C123.093 61.3954 122.949 61.3593 122.804 61.3593C122.588 61.3593 122.408 61.3593 122.263 61.3954C122.119 61.4314 122.011 61.4675 121.939 61.5036C121.867 61.5396 121.795 61.5757 121.795 61.6118C121.758 61.6478 121.758 61.6839 121.758 61.72V63.6314Z" fill="#808080"/>
<path d="M129.261 64.9718C128.936 64.9718 128.647 64.9357 128.431 64.8997C128.215 64.8276 127.998 64.7554 127.854 64.6472C127.71 64.539 127.566 64.4308 127.457 64.2866C127.349 64.1423 127.277 63.9981 127.241 63.8177C127.205 63.6374 127.169 63.4571 127.133 63.2768C127.133 63.0964 127.097 62.88 127.097 62.6636V62.6276C127.097 62.4112 127.097 62.2309 127.133 62.0505C127.133 61.8702 127.169 61.6899 127.241 61.5096C127.277 61.3292 127.385 61.185 127.457 61.0407C127.566 60.8964 127.674 60.7882 127.854 60.6801C127.998 60.5719 128.215 60.4997 128.431 60.4276C128.647 60.3555 128.936 60.3555 129.261 60.3555H129.297C129.621 60.3555 129.91 60.3915 130.126 60.4276C130.343 60.4997 130.559 60.5719 130.703 60.6801C130.847 60.7882 130.992 60.8964 131.1 61.0407C131.208 61.185 131.28 61.3292 131.316 61.5096C131.352 61.6899 131.388 61.8702 131.425 62.0505C131.425 62.2309 131.461 62.4472 131.461 62.6276V62.6636C131.461 62.88 131.461 63.0604 131.425 63.2768C131.425 63.4571 131.388 63.6374 131.316 63.8177C131.28 63.9981 131.172 64.1423 131.1 64.2866C130.992 64.4308 130.884 64.539 130.703 64.6472C130.559 64.7554 130.343 64.8276 130.126 64.8997C129.874 64.9357 129.621 64.9718 129.261 64.9718ZM129.297 63.962C129.513 63.962 129.693 63.9259 129.802 63.8899C129.91 63.8177 130.018 63.7456 130.09 63.6374C130.162 63.5292 130.198 63.421 130.198 63.2407C130.198 63.0964 130.234 62.9161 130.234 62.6997V62.5194C130.234 62.3391 130.234 62.1587 130.198 62.0145C130.198 61.8702 130.162 61.7259 130.09 61.6178C130.018 61.5096 129.946 61.4374 129.802 61.3653C129.693 61.2932 129.513 61.2932 129.297 61.2932H129.225C129.008 61.2932 128.828 61.3292 128.72 61.3653C128.611 61.4014 128.503 61.5096 128.431 61.6178C128.359 61.7259 128.323 61.8341 128.323 62.0145C128.323 62.1587 128.287 62.3391 128.287 62.5194V62.6997C128.287 62.88 128.287 63.0604 128.323 63.2407C128.323 63.3849 128.359 63.5292 128.431 63.6374C128.503 63.7456 128.575 63.8177 128.72 63.8899C128.828 63.962 129.008 63.962 129.225 63.962H129.297Z" fill="#808080"/>
<path d="M136.979 60.641C137.015 60.641 137.051 60.641 137.087 60.641C137.123 60.641 137.159 60.641 137.195 60.641C137.303 60.641 137.447 60.6771 137.556 60.7131C137.664 60.7492 137.772 60.8213 137.88 60.8574C137.988 60.9295 138.06 61.0016 138.097 61.1098C138.169 61.218 138.205 61.3262 138.205 61.4344L138.493 63.8147C138.493 63.8869 138.529 63.9229 138.565 63.9229C138.601 63.9229 138.601 63.9229 138.638 63.8869C138.638 63.8508 138.674 63.8508 138.674 63.8147L139.215 60.5689C139.215 60.4967 139.251 60.4607 139.287 60.4246C139.323 60.3885 139.359 60.3525 139.395 60.3525C139.431 60.3525 139.503 60.3164 139.539 60.3164C139.575 60.3164 139.647 60.3164 139.683 60.3164C139.756 60.3164 139.864 60.3164 139.936 60.3525C140.008 60.3885 140.08 60.4246 140.152 60.4607C140.224 60.4967 140.26 60.5689 140.296 60.641C140.333 60.7131 140.333 60.7853 140.333 60.8574L139.792 64.1033C139.756 64.3196 139.683 64.4639 139.611 64.5721C139.539 64.6803 139.431 64.7885 139.323 64.8246C139.215 64.8967 139.106 64.8967 138.962 64.9328C138.854 64.9328 138.71 64.9688 138.601 64.9688H138.457C138.349 64.9688 138.205 64.9688 138.097 64.9328C137.988 64.8967 137.88 64.8606 137.772 64.7885C137.664 64.7164 137.592 64.6442 137.519 64.536C137.447 64.4278 137.411 64.2836 137.375 64.1033L137.015 61.7229C137.015 61.6869 136.979 61.6508 136.979 61.6508C136.942 61.6508 136.942 61.6508 136.942 61.6508H136.906C136.87 61.6508 136.87 61.6869 136.87 61.7229L136.51 64.1033C136.474 64.2836 136.438 64.4278 136.365 64.536C136.293 64.6442 136.221 64.7164 136.113 64.7885C136.005 64.8606 135.897 64.8967 135.788 64.9328C135.68 64.9688 135.536 64.9688 135.428 64.9688H135.32C135.211 64.9688 135.103 64.9688 134.959 64.9328C134.851 64.9328 134.706 64.8967 134.598 64.8246C134.49 64.7524 134.382 64.6803 134.31 64.5721C134.238 64.4639 134.165 64.2836 134.129 64.1033L133.588 60.8574C133.588 60.7853 133.588 60.7131 133.624 60.641C133.661 60.5689 133.697 60.4967 133.769 60.4607C133.841 60.4246 133.913 60.3885 133.985 60.3525C134.057 60.3164 134.165 60.3164 134.238 60.3164C134.274 60.3164 134.31 60.3164 134.382 60.3164C134.418 60.3164 134.49 60.3164 134.526 60.3525C134.562 60.3885 134.598 60.3885 134.634 60.4246C134.67 60.4607 134.706 60.4967 134.706 60.5689L135.247 63.8147C135.247 63.8508 135.247 63.8508 135.283 63.8869C135.283 63.9229 135.32 63.9229 135.356 63.9229C135.392 63.9229 135.428 63.8869 135.428 63.8147L135.716 61.4344C135.716 61.3262 135.752 61.218 135.824 61.1098C135.897 61.0016 135.969 60.9295 136.041 60.8574C136.149 60.7853 136.221 60.7492 136.365 60.7131C136.474 60.6771 136.582 60.641 136.726 60.641C136.762 60.641 136.798 60.641 136.834 60.641C136.87 60.641 136.942 60.641 136.979 60.641Z" fill="#808080"/>
<path d="M145.814 62.9822C145.67 63.0183 145.526 63.0544 145.346 63.0904C145.165 63.1265 144.985 63.1626 144.805 63.1626C144.624 63.1986 144.444 63.1986 144.264 63.2347C144.083 63.2708 143.903 63.2708 143.723 63.2708C143.723 63.379 143.759 63.4511 143.759 63.5593C143.795 63.6314 143.831 63.7035 143.903 63.7757C143.975 63.8478 144.047 63.8839 144.155 63.9199C144.264 63.956 144.408 63.956 144.552 63.956C144.732 63.956 144.913 63.956 145.057 63.9199C145.201 63.8839 145.346 63.8839 145.454 63.8478C145.562 63.8117 145.67 63.8117 145.778 63.7757C145.887 63.7396 145.959 63.7396 146.031 63.7396C146.103 63.7396 146.175 63.7396 146.211 63.7757C146.247 63.8117 146.283 63.8478 146.319 63.8839C146.355 63.9199 146.355 63.956 146.355 64.0281C146.355 64.0642 146.355 64.1363 146.355 64.1724C146.355 64.3167 146.319 64.4248 146.211 64.533C146.139 64.6412 145.995 64.7134 145.85 64.7855C145.706 64.8576 145.49 64.8937 145.273 64.9298C145.057 64.9658 144.805 64.9658 144.516 64.9658C144.191 64.9658 143.903 64.9298 143.687 64.8937C143.47 64.8576 143.254 64.7855 143.109 64.6773C142.965 64.6052 142.821 64.497 142.749 64.3527C142.677 64.2085 142.605 64.0642 142.532 63.9199C142.496 63.7396 142.46 63.5593 142.424 63.379C142.424 63.1626 142.388 62.9822 142.388 62.7298C142.388 62.3691 142.424 62.0445 142.46 61.72C142.496 61.4314 142.605 61.179 142.749 60.9626C142.893 60.7462 143.109 60.6019 143.398 60.4577C143.687 60.3134 144.047 60.2773 144.516 60.2773C144.805 60.2773 145.093 60.3134 145.309 60.3495C145.562 60.3855 145.778 60.4937 145.959 60.6019C146.139 60.7101 146.283 60.8544 146.391 61.0347C146.5 61.215 146.572 61.4314 146.608 61.6839C146.644 61.8642 146.608 62.0085 146.608 62.1527C146.572 62.297 146.536 62.4052 146.464 62.5134C146.391 62.6216 146.283 62.7298 146.175 62.8019C146.175 62.874 146.031 62.9462 145.814 62.9822ZM144.805 61.2872C144.588 61.2872 144.408 61.3232 144.264 61.3593C144.119 61.3954 144.011 61.4675 143.939 61.5757C143.867 61.6839 143.795 61.7921 143.795 61.9363C143.759 62.0806 143.759 62.2249 143.759 62.4052C143.867 62.4052 144.011 62.3691 144.119 62.3691C144.264 62.3691 144.372 62.3331 144.516 62.3331C144.66 62.3331 144.768 62.297 144.913 62.297C145.057 62.297 145.129 62.2609 145.237 62.2609C145.382 62.2249 145.454 62.1888 145.526 62.1167C145.562 62.0445 145.598 61.9724 145.598 61.9003C145.598 61.7921 145.562 61.72 145.526 61.6478C145.49 61.5757 145.418 61.5036 145.346 61.4675C145.273 61.4314 145.201 61.3954 145.093 61.3593C144.985 61.2872 144.913 61.2872 144.805 61.2872Z" fill="#808080"/>
<path d="M151.26 60.3164C151.584 60.3164 151.873 60.3885 152.053 60.5328C152.234 60.641 152.342 60.8213 152.342 61.0377C152.342 61.0738 152.342 61.1459 152.342 61.182C152.342 61.218 152.306 61.2541 152.306 61.3262C152.27 61.3623 152.234 61.3984 152.198 61.4344C152.161 61.4705 152.089 61.4705 152.017 61.4705C151.945 61.4705 151.873 61.4705 151.837 61.4705C151.801 61.4705 151.729 61.4344 151.693 61.4344C151.62 61.4344 151.584 61.3984 151.476 61.3984C151.404 61.3984 151.26 61.3984 151.116 61.3984C150.971 61.3984 150.827 61.3984 150.719 61.4344C150.611 61.4705 150.539 61.4705 150.502 61.5066C150.43 61.5426 150.394 61.5787 150.394 61.6148C150.358 61.6508 150.358 61.6869 150.358 61.7229V64.7524C150.358 64.8246 150.358 64.8967 150.322 64.9328C150.286 64.9688 150.25 65.0049 150.178 65.0409C150.106 65.077 150.07 65.077 149.998 65.077C149.925 65.077 149.853 65.077 149.781 65.077C149.709 65.077 149.637 65.077 149.565 65.077C149.493 65.077 149.42 65.0409 149.384 65.0409C149.312 65.0049 149.276 64.9688 149.24 64.9328C149.204 64.8967 149.204 64.8246 149.204 64.7524V61.2541C149.204 61.1459 149.24 61.0738 149.312 61.0016C149.384 60.9295 149.457 60.8574 149.565 60.7853C149.673 60.7131 149.817 60.6771 149.961 60.641C150.106 60.6049 150.25 60.5689 150.43 60.5328C150.611 60.4967 150.755 60.4967 150.899 60.4607C150.971 60.3164 151.116 60.3164 151.26 60.3164Z" fill="#808080"/>
<path d="M157.608 62.9822C157.464 63.0183 157.319 63.0544 157.139 63.0904C156.959 63.1265 156.778 63.1626 156.598 63.1626C156.418 63.1986 156.237 63.1986 156.057 63.2347C155.877 63.2708 155.696 63.2708 155.516 63.2708C155.516 63.379 155.552 63.4511 155.552 63.5593C155.588 63.6314 155.624 63.7035 155.696 63.7757C155.769 63.8478 155.841 63.8839 155.949 63.9199C156.057 63.956 156.201 63.956 156.346 63.956C156.526 63.956 156.706 63.956 156.85 63.9199C156.995 63.8839 157.139 63.8839 157.247 63.8478C157.355 63.8117 157.464 63.8117 157.572 63.7757C157.68 63.7396 157.752 63.7396 157.824 63.7396C157.896 63.7396 157.968 63.7396 158.005 63.7757C158.041 63.8117 158.077 63.8478 158.113 63.8839C158.149 63.9199 158.149 63.956 158.149 64.0281C158.149 64.0642 158.149 64.1363 158.149 64.1724C158.149 64.3167 158.113 64.4248 158.005 64.533C157.932 64.6412 157.788 64.7134 157.644 64.7855C157.5 64.8576 157.283 64.8937 157.067 64.9298C156.85 64.9658 156.598 64.9658 156.309 64.9658C155.985 64.9658 155.696 64.9298 155.48 64.8937C155.264 64.8576 155.047 64.7855 154.903 64.6773C154.759 64.6052 154.614 64.497 154.542 64.3527C154.47 64.2085 154.398 64.0642 154.326 63.9199C154.29 63.7396 154.254 63.5593 154.218 63.379C154.218 63.1626 154.182 62.9822 154.182 62.7298C154.182 62.3691 154.218 62.0445 154.254 61.72C154.29 61.4314 154.398 61.179 154.542 60.9626C154.687 60.7462 154.903 60.6019 155.191 60.4577C155.48 60.3495 155.841 60.2773 156.309 60.2773C156.598 60.2773 156.887 60.3134 157.103 60.3495C157.355 60.3855 157.572 60.4937 157.752 60.6019C157.932 60.7101 158.077 60.8544 158.185 61.0347C158.293 61.215 158.365 61.4314 158.401 61.6839C158.437 61.8642 158.401 62.0085 158.401 62.1527C158.365 62.297 158.329 62.4052 158.257 62.5134C158.185 62.6216 158.077 62.7298 157.968 62.8019C157.968 62.874 157.788 62.9462 157.608 62.9822ZM156.562 61.2872C156.346 61.2872 156.165 61.3232 156.021 61.3593C155.877 61.3954 155.769 61.4675 155.696 61.5757C155.624 61.6839 155.552 61.7921 155.552 61.9363C155.552 62.0806 155.516 62.2249 155.516 62.4052C155.624 62.4052 155.769 62.3691 155.877 62.3691C156.021 62.3691 156.129 62.3331 156.273 62.3331C156.418 62.3331 156.526 62.297 156.67 62.297C156.814 62.297 156.887 62.2609 156.995 62.2609C157.139 62.2249 157.211 62.1888 157.283 62.1167C157.319 62.0445 157.355 61.9724 157.355 61.9003C157.355 61.7921 157.319 61.72 157.283 61.6478C157.247 61.5757 157.175 61.5036 157.103 61.4675C157.031 61.4314 156.959 61.3954 156.85 61.3593C156.778 61.2872 156.67 61.2872 156.562 61.2872Z" fill="#808080"/>
<path d="M162.404 60.3138C162.476 60.3138 162.585 60.3138 162.693 60.3138C162.801 60.3138 162.909 60.3138 163.053 60.3499C163.162 60.3499 163.306 60.3859 163.414 60.422C163.522 60.4581 163.666 60.4941 163.775 60.5663V58.7269C163.775 58.6187 163.811 58.5105 163.883 58.4745C163.955 58.4384 164.027 58.4023 164.171 58.4023C164.244 58.4023 164.352 58.4023 164.424 58.4023C164.532 58.4023 164.604 58.4384 164.712 58.4745C164.784 58.5105 164.857 58.5466 164.929 58.5827C165.001 58.6548 165.037 58.6909 165.037 58.7991V64.1367C165.037 64.2449 165.001 64.3531 164.929 64.4252C164.857 64.4974 164.748 64.5695 164.604 64.6416C164.46 64.7137 164.316 64.7498 164.135 64.7859C163.955 64.8219 163.775 64.858 163.594 64.8941C163.414 64.9301 163.198 64.9301 163.017 64.9301C162.801 64.9301 162.621 64.9301 162.44 64.9301C162.116 64.9301 161.827 64.858 161.611 64.7498C161.394 64.6416 161.214 64.4613 161.106 64.2449C160.998 64.0285 160.889 63.7761 160.853 63.4875C160.817 63.199 160.781 62.8744 160.781 62.5138V62.4777C160.781 62.1892 160.817 61.9007 160.853 61.6482C160.889 61.3958 160.998 61.1433 161.106 60.963C161.214 60.7826 161.394 60.6023 161.611 60.4941C161.791 60.3859 162.044 60.3138 162.404 60.3138ZM162.729 63.9203C162.945 63.9203 163.125 63.9203 163.27 63.8842C163.414 63.8842 163.522 63.8482 163.594 63.8121C163.666 63.7761 163.739 63.74 163.739 63.74C163.775 63.7039 163.775 63.6679 163.775 63.6318V61.7203C163.775 61.6482 163.739 61.6121 163.666 61.5761C163.594 61.54 163.522 61.5039 163.414 61.4679C163.306 61.4318 163.198 61.3957 163.089 61.3957C162.981 61.3597 162.837 61.3597 162.729 61.3597C162.585 61.3597 162.476 61.3597 162.368 61.3597C162.26 61.3597 162.188 61.4318 162.152 61.4679C162.08 61.54 162.044 61.6121 162.007 61.7564C161.971 61.8646 161.971 62.0449 161.971 62.2253V62.7302C161.971 62.9466 161.971 63.0908 161.971 63.2711C161.971 63.4154 162.007 63.5597 162.08 63.6318C162.152 63.74 162.224 63.8121 162.296 63.8482C162.404 63.9203 162.548 63.9203 162.729 63.9203Z" fill="#808080"/>
<path d="M170.626 60.5663C170.734 60.4941 170.878 60.4581 170.986 60.422C171.094 60.3859 171.239 60.3499 171.347 60.3499C171.455 60.3138 171.599 60.3138 171.708 60.3138C171.816 60.3138 171.924 60.3138 171.996 60.3138C172.321 60.3138 172.609 60.3859 172.826 60.4941C173.042 60.6023 173.222 60.7466 173.331 60.963C173.439 61.1433 173.547 61.3958 173.583 61.6482C173.619 61.9007 173.655 62.1892 173.655 62.4777V62.5138C173.655 62.8744 173.619 63.199 173.583 63.4875C173.547 63.7761 173.439 64.0285 173.331 64.2449C173.222 64.4613 173.042 64.6416 172.826 64.7498C172.609 64.858 172.321 64.9301 171.996 64.9301C171.816 64.9301 171.635 64.9301 171.419 64.9301C171.239 64.9301 171.022 64.8941 170.842 64.8941C170.662 64.858 170.481 64.858 170.301 64.7859C170.121 64.7498 169.976 64.7137 169.832 64.6416C169.688 64.5695 169.58 64.4974 169.508 64.4252C169.435 64.3531 169.399 64.2449 169.399 64.1367V58.7991C169.399 58.7269 169.435 58.6548 169.508 58.5827C169.58 58.5105 169.652 58.4745 169.724 58.4745C169.796 58.4384 169.904 58.4384 170.013 58.4023C170.121 58.4023 170.193 58.4023 170.265 58.4023C170.337 58.4023 170.373 58.4023 170.409 58.4023C170.445 58.4023 170.481 58.4384 170.517 58.4384C170.554 58.4745 170.59 58.4745 170.59 58.5105C170.59 58.5466 170.626 58.5827 170.626 58.6548V60.5663ZM171.672 61.3597C171.527 61.3597 171.419 61.3957 171.311 61.3957C171.203 61.4318 171.094 61.4318 170.986 61.4679C170.878 61.5039 170.806 61.54 170.734 61.5761C170.662 61.6121 170.626 61.6843 170.626 61.7203V63.6318C170.626 63.6679 170.626 63.7039 170.662 63.74C170.698 63.7761 170.734 63.8121 170.806 63.8121C170.878 63.8482 170.986 63.8482 171.131 63.8842C171.275 63.8842 171.455 63.9203 171.672 63.9203C171.852 63.9203 171.96 63.8843 172.068 63.8482C172.176 63.8121 172.249 63.74 172.321 63.6318C172.393 63.5236 172.393 63.4154 172.429 63.2711C172.429 63.1269 172.465 62.9466 172.465 62.7302V62.2253C172.465 62.0449 172.429 61.8646 172.429 61.7564C172.393 61.6482 172.357 61.54 172.285 61.4679C172.212 61.3958 172.14 61.3597 172.068 61.3597C171.924 61.3597 171.816 61.3597 171.672 61.3597Z" fill="#222957"/>
<path d="M177.911 63.885C177.911 63.9211 177.911 63.9211 177.947 63.9572L177.983 63.9932H178.019H178.055L178.163 63.7047L178.992 60.9998C179.029 60.8556 179.065 60.7474 179.101 60.6392C179.137 60.567 179.173 60.4949 179.209 60.4588C179.245 60.4228 179.281 60.3867 179.353 60.3867C179.425 60.3867 179.497 60.3867 179.606 60.3867C179.678 60.3867 179.786 60.3867 179.858 60.4228C179.966 60.4589 180.038 60.4949 180.11 60.567C180.183 60.6392 180.219 60.7113 180.255 60.8195C180.291 60.9277 180.255 61.072 180.219 61.2162L179.461 63.4883C179.461 63.5244 179.461 63.5244 179.461 63.5605V63.5965L178.56 66.4457C178.524 66.5539 178.488 66.626 178.451 66.6981C178.415 66.7703 178.379 66.8424 178.343 66.8785C178.307 66.9145 178.235 66.9506 178.163 66.9866C178.091 66.9866 178.019 67.0227 177.911 67.0227C177.838 67.0227 177.73 67.0227 177.658 66.9866C177.586 66.9506 177.478 66.9145 177.442 66.8785C177.37 66.8063 177.333 66.7342 177.333 66.626C177.297 66.5178 177.333 66.4096 177.37 66.2293L177.766 65.0391C177.694 65.0391 177.586 65.0391 177.514 65.0031C177.442 64.967 177.333 64.9309 177.261 64.8949C177.189 64.8227 177.117 64.7506 177.045 64.6424C176.973 64.5342 176.901 64.426 176.865 64.2457L175.891 61.2162C175.855 61.072 175.819 60.9277 175.855 60.8195C175.891 60.7113 175.927 60.6392 175.999 60.567C176.071 60.4949 176.143 60.4589 176.252 60.4228C176.36 60.3867 176.432 60.3867 176.504 60.3867C176.612 60.3867 176.684 60.3867 176.756 60.3867C176.829 60.3867 176.865 60.4228 176.901 60.4588C176.937 60.4949 176.973 60.567 177.009 60.6392C177.045 60.7113 177.081 60.8195 177.117 60.9998L177.911 63.885Z" fill="#222957"/>
<path d="M188.875 58.5508C188.983 58.5508 189.055 58.5508 189.091 58.5868C189.163 58.5868 189.199 58.6229 189.199 58.695C189.235 58.7311 189.235 58.8032 189.235 58.8754C189.235 58.9475 189.235 59.0196 189.235 59.1278C189.235 59.2721 189.199 59.3803 189.163 59.4524C189.127 59.5245 189.091 59.5967 189.019 59.5967C188.947 59.6327 188.911 59.6327 188.839 59.6688C188.766 59.7049 188.73 59.6688 188.694 59.6688H187.071V64.6458C187.071 64.7179 187.035 64.7901 186.999 64.8261C186.963 64.8622 186.927 64.8983 186.855 64.9343C186.783 64.9704 186.711 64.9704 186.639 64.9704C186.566 64.9704 186.494 64.9704 186.422 64.9704C186.35 64.9704 186.242 64.9704 186.17 64.9704C186.098 64.9704 186.025 64.9343 185.953 64.9343C185.881 64.8983 185.845 64.8622 185.809 64.8261C185.773 64.7901 185.773 64.7179 185.773 64.6458V59.6688H184.186C184.15 59.6688 184.114 59.6688 184.078 59.6688C184.042 59.6688 183.97 59.6327 183.934 59.5967C183.898 59.5606 183.825 59.4885 183.789 59.4163C183.753 59.3442 183.717 59.236 183.717 59.1278C183.717 59.0196 183.717 58.9114 183.717 58.8393C183.717 58.7672 183.753 58.695 183.753 58.659C183.789 58.6229 183.825 58.5868 183.862 58.5868C183.898 58.5868 183.97 58.5508 184.042 58.5508H188.875V58.5508Z" fill="#808080"/>
<path d="M194.609 62.9822C194.465 63.0183 194.321 63.0544 194.14 63.0904C193.96 63.1265 193.78 63.1626 193.599 63.1626C193.419 63.1986 193.239 63.1986 193.058 63.2347C192.878 63.2708 192.698 63.2708 192.517 63.2708C192.517 63.379 192.554 63.4511 192.554 63.5593C192.59 63.6314 192.626 63.7035 192.698 63.7757C192.77 63.8478 192.842 63.8839 192.95 63.9199C193.058 63.956 193.203 63.956 193.347 63.956C193.527 63.956 193.708 63.956 193.852 63.9199C193.996 63.8839 194.14 63.8839 194.249 63.8478C194.357 63.8117 194.465 63.8117 194.573 63.7757C194.681 63.7396 194.754 63.7396 194.826 63.7396C194.898 63.7396 194.97 63.7396 195.006 63.7757C195.042 63.8117 195.078 63.8478 195.114 63.8839C195.15 63.9199 195.15 63.956 195.15 64.0281C195.15 64.0642 195.15 64.1363 195.15 64.1724C195.15 64.3167 195.114 64.4248 195.006 64.533C194.934 64.6412 194.79 64.7134 194.645 64.7855C194.501 64.8576 194.285 64.8937 194.068 64.9298C193.852 64.9658 193.599 64.9658 193.311 64.9658C192.986 64.9658 192.698 64.9298 192.481 64.8937C192.265 64.8576 192.049 64.7855 191.904 64.6773C191.76 64.6052 191.616 64.497 191.544 64.3527C191.472 64.2085 191.399 64.0642 191.327 63.9199C191.291 63.7396 191.255 63.5593 191.219 63.379C191.219 63.1626 191.183 62.9822 191.183 62.7298C191.183 62.3691 191.219 62.0445 191.255 61.72C191.291 61.4314 191.399 61.179 191.544 60.9626C191.688 60.7462 191.904 60.6019 192.193 60.4577C192.481 60.3495 192.842 60.2773 193.311 60.2773C193.599 60.2773 193.888 60.3134 194.104 60.3495C194.357 60.3855 194.573 60.4937 194.754 60.6019C194.934 60.7101 195.078 60.8544 195.186 61.0347C195.295 61.215 195.367 61.4314 195.403 61.6839C195.439 61.8642 195.403 62.0085 195.403 62.1527C195.367 62.297 195.331 62.4052 195.258 62.5134C195.186 62.6216 195.078 62.7298 194.97 62.8019C194.97 62.874 194.826 62.9462 194.609 62.9822ZM193.599 61.2872C193.383 61.2872 193.203 61.3232 193.058 61.3593C192.914 61.3954 192.806 61.4675 192.734 61.5757C192.662 61.6839 192.59 61.7921 192.59 61.9363C192.59 62.0806 192.554 62.2249 192.554 62.4052C192.662 62.4052 192.806 62.3691 192.914 62.3691C193.058 62.3691 193.167 62.3331 193.311 62.3331C193.455 62.3331 193.563 62.297 193.708 62.297C193.852 62.297 193.924 62.2609 194.032 62.2609C194.177 62.2249 194.249 62.1888 194.321 62.1167C194.357 62.0445 194.393 61.9724 194.393 61.9003C194.393 61.7921 194.357 61.72 194.321 61.6478C194.285 61.5757 194.213 61.5036 194.14 61.4675C194.068 61.4314 193.996 61.3954 193.888 61.3593C193.78 61.2872 193.672 61.2872 193.599 61.2872Z" fill="#808080"/>
<path d="M199.838 64.9688C199.514 64.9688 199.225 64.9328 199.009 64.8967C198.792 64.8606 198.576 64.7885 198.432 64.6803C198.287 64.6082 198.143 64.5 198.071 64.3557C197.999 64.2114 197.927 64.0672 197.855 63.9229C197.819 63.7426 197.783 63.5623 197.747 63.3819C197.747 63.1656 197.71 62.9852 197.71 62.7328V62.5525C197.71 62.3361 197.71 62.1197 197.747 61.9033C197.747 61.6869 197.783 61.5066 197.855 61.3623C197.891 61.182 197.963 61.0377 198.071 60.9295C198.143 60.7853 198.287 60.6771 198.432 60.6049C198.576 60.5328 198.792 60.4607 199.009 60.3885C199.225 60.3525 199.514 60.3164 199.838 60.3164C200.127 60.3164 200.379 60.3164 200.596 60.3525C200.812 60.3885 200.992 60.4246 201.173 60.4967C201.317 60.5689 201.461 60.641 201.533 60.7492C201.605 60.8574 201.678 60.9656 201.678 61.1098C201.678 61.1459 201.678 61.218 201.678 61.2541C201.678 61.2902 201.642 61.3262 201.642 61.3984C201.605 61.4344 201.569 61.4705 201.533 61.5066C201.497 61.5426 201.425 61.5426 201.353 61.5426C201.281 61.5426 201.209 61.5426 201.101 61.5066C200.992 61.5066 200.884 61.4705 200.776 61.4344C200.668 61.3984 200.524 61.3984 200.379 61.3623C200.235 61.3262 200.055 61.3262 199.874 61.3262C199.694 61.3262 199.586 61.3262 199.478 61.3623C199.369 61.3984 199.297 61.4344 199.225 61.5066C199.153 61.5787 199.117 61.6869 199.081 61.7951C199.045 61.9393 199.045 62.1197 199.045 62.3361V62.877C199.045 63.0574 199.045 63.2016 199.045 63.3098C199.045 63.418 199.081 63.5262 199.153 63.6344C199.189 63.7065 199.297 63.7787 199.406 63.8147C199.514 63.8508 199.694 63.8869 199.874 63.8869C200.091 63.8869 200.271 63.8869 200.451 63.8508C200.632 63.8147 200.776 63.8147 200.92 63.7787C201.028 63.7426 201.101 63.7426 201.173 63.7426C201.245 63.7426 201.317 63.7065 201.389 63.7065C201.461 63.7065 201.533 63.7065 201.569 63.7426C201.605 63.7787 201.642 63.8147 201.678 63.8508C201.714 63.8869 201.714 63.9229 201.714 63.9951C201.714 64.0311 201.714 64.1033 201.714 64.1393C201.714 64.2836 201.678 64.3918 201.569 64.5C201.497 64.6082 201.353 64.6803 201.209 64.7524C201.065 64.8246 200.848 64.8606 200.632 64.8967C200.343 64.9688 200.091 64.9688 199.838 64.9688Z" fill="#808080"/>
<path d="M205.176 61.72C205.176 61.7921 205.212 61.8642 205.285 61.9003C205.357 61.9363 205.465 61.9724 205.573 62.0085C205.681 62.0445 205.826 62.0806 206.006 62.0806C206.15 62.1167 206.33 62.1527 206.511 62.1888C206.691 62.2249 206.835 62.297 207.016 62.3331C207.16 62.4052 207.304 62.4773 207.448 62.5855C207.557 62.6937 207.665 62.8019 207.737 62.9462C207.809 63.0904 207.845 63.2708 207.845 63.4872C207.845 63.5953 207.845 63.6675 207.809 63.7757C207.809 63.8839 207.773 63.9921 207.701 64.1003C207.665 64.2084 207.593 64.3166 207.521 64.4248C207.448 64.533 207.34 64.6052 207.196 64.6773C207.052 64.7494 206.871 64.8216 206.691 64.8576C206.475 64.8937 206.258 64.9298 205.97 64.9298C205.717 64.9298 205.501 64.9298 205.248 64.8937C204.996 64.8576 204.78 64.8216 204.599 64.7855C204.419 64.7134 204.239 64.6412 204.13 64.533C204.022 64.4248 203.95 64.2806 203.95 64.0642C203.95 63.956 203.986 63.8839 204.022 63.8117C204.094 63.7396 204.167 63.7035 204.275 63.7035C204.311 63.7035 204.419 63.7035 204.527 63.7396C204.635 63.7757 204.78 63.7757 204.924 63.8117C205.068 63.8478 205.248 63.8478 205.393 63.8839C205.537 63.9199 205.717 63.9199 205.898 63.9199C206.006 63.9199 206.078 63.9199 206.15 63.9199C206.222 63.9199 206.294 63.8839 206.366 63.8478C206.439 63.8117 206.475 63.7757 206.511 63.7396C206.547 63.7035 206.583 63.6314 206.583 63.5593C206.583 63.4511 206.547 63.3789 206.475 63.3429C206.403 63.2708 206.294 63.2347 206.186 63.1986C206.078 63.1626 205.934 63.1265 205.753 63.0904C205.609 63.0544 205.429 63.0183 205.248 62.9822C205.068 62.9462 204.924 62.874 204.744 62.838C204.599 62.7658 204.455 62.6937 204.311 62.5855C204.203 62.4773 204.094 62.3691 204.022 62.2249C203.95 62.0806 203.914 61.9003 203.914 61.6839C203.914 61.4675 203.95 61.2511 204.058 61.0708C204.13 60.8905 204.275 60.7462 204.455 60.638C204.635 60.5298 204.816 60.4216 205.032 60.3855C205.248 60.3134 205.501 60.2773 205.789 60.2773C205.826 60.2773 205.898 60.2773 206.006 60.2773C206.114 60.2773 206.222 60.2773 206.366 60.3134C206.511 60.3134 206.655 60.3495 206.763 60.3855C206.871 60.4216 207.052 60.4577 207.16 60.5298C207.268 60.6019 207.376 60.6741 207.448 60.7823C207.521 60.8905 207.593 60.9987 207.593 61.1429C207.593 61.179 207.593 61.2511 207.593 61.2872C207.593 61.3232 207.557 61.3954 207.521 61.4314C207.485 61.4675 207.448 61.5036 207.412 61.5396C207.376 61.5757 207.304 61.5757 207.232 61.5757C207.16 61.5757 207.052 61.5757 206.944 61.5396C206.835 61.5036 206.691 61.5036 206.547 61.4675C206.403 61.4314 206.258 61.4314 206.114 61.3954C205.97 61.3593 205.826 61.3593 205.681 61.3593C205.501 61.3593 205.393 61.3954 205.285 61.4314C205.212 61.4675 205.176 61.5757 205.176 61.72Z" fill="#808080"/>
<path d="M213.111 60.641C213.111 60.5689 213.111 60.4967 213.147 60.4607C213.183 60.4246 213.219 60.3885 213.291 60.3525C213.363 60.3164 213.399 60.3164 213.472 60.3164C213.544 60.3164 213.616 60.3164 213.688 60.3164C213.76 60.3164 213.832 60.3164 213.904 60.3164C213.976 60.3164 214.049 60.3525 214.085 60.3525C214.157 60.3885 214.193 60.4246 214.229 60.4607C214.265 60.4967 214.265 60.5689 214.265 60.641V64.2475C214.265 64.3918 214.229 64.5 214.121 64.5721C214.013 64.6803 213.868 64.7524 213.652 64.7885C213.435 64.8606 213.147 64.8967 212.822 64.8967C212.498 64.9328 212.101 64.9328 211.668 64.9328C211.344 64.9328 211.055 64.8606 210.839 64.7524C210.622 64.6442 210.442 64.4639 210.334 64.2475C210.226 64.0311 210.117 63.7787 210.081 63.4901C210.045 63.2016 210.009 62.877 210.009 62.5164V60.641C210.009 60.5689 210.009 60.4967 210.045 60.4607C210.081 60.4246 210.117 60.3885 210.19 60.3525C210.262 60.3164 210.298 60.3164 210.37 60.3164C210.442 60.3164 210.514 60.3164 210.586 60.3164C210.658 60.3164 210.731 60.3164 210.803 60.3164C210.875 60.3164 210.947 60.3525 210.983 60.3525C211.055 60.3885 211.091 60.4246 211.127 60.4607C211.163 60.4967 211.163 60.5689 211.163 60.641V62.7328C211.163 62.9492 211.163 63.0934 211.199 63.2738C211.199 63.418 211.236 63.5623 211.308 63.6344C211.344 63.7426 211.452 63.8147 211.524 63.8508C211.632 63.8869 211.776 63.9229 211.921 63.9229C212.209 63.9229 212.426 63.9229 212.57 63.9229C212.714 63.9229 212.822 63.8869 212.894 63.8869C212.967 63.8508 213.003 63.8147 213.003 63.7787C213.003 63.7426 213.003 63.7065 213.003 63.6344V60.641H213.111Z" fill="#808080"/>
<path d="M219.531 64.9658C219.459 64.9658 219.351 64.9658 219.243 64.9658C219.135 64.9658 219.026 64.9658 218.882 64.9298C218.738 64.8937 218.63 64.8937 218.521 64.8576C218.413 64.8216 218.269 64.7855 218.161 64.7494V66.5527C218.161 66.6248 218.161 66.6609 218.125 66.697C218.125 66.733 218.089 66.7691 218.053 66.7691C218.017 66.8051 217.98 66.8051 217.944 66.8051C217.908 66.8051 217.836 66.8051 217.8 66.8051C217.728 66.8051 217.62 66.8051 217.548 66.8051C217.439 66.8051 217.367 66.7691 217.259 66.733C217.187 66.697 217.115 66.6609 217.043 66.6248C216.971 66.5888 216.935 66.5166 216.935 66.4084V61.179C216.935 61.0708 216.971 60.9626 217.043 60.8544C217.115 60.7823 217.223 60.6741 217.367 60.638C217.512 60.5659 217.656 60.5298 217.836 60.4577C218.017 60.4216 218.197 60.3855 218.377 60.3495C218.558 60.3134 218.774 60.3134 218.954 60.2773C219.171 60.2773 219.351 60.2773 219.531 60.2773C219.856 60.2773 220.144 60.3495 220.361 60.4577C220.577 60.5659 220.757 60.7462 220.866 60.9626C220.974 61.179 221.082 61.4314 221.118 61.72C221.154 62.0085 221.19 62.3331 221.19 62.6937V62.7298C221.19 63.0183 221.154 63.3068 221.118 63.5593C221.082 63.8117 220.974 64.0642 220.866 64.2445C220.757 64.4248 220.577 64.6052 220.361 64.7134C220.144 64.9298 219.892 64.9658 219.531 64.9658ZM218.161 63.6314C218.161 63.7035 218.197 63.7396 218.269 63.7757C218.341 63.8117 218.413 63.8478 218.521 63.8478C218.63 63.8839 218.738 63.8839 218.846 63.8839C218.954 63.8839 219.098 63.9199 219.207 63.9199C219.351 63.9199 219.459 63.9199 219.567 63.9199C219.676 63.9199 219.748 63.8478 219.784 63.8117C219.856 63.7396 219.892 63.6675 219.928 63.5232C219.964 63.415 219.964 63.2347 219.964 63.0544V62.5495C219.964 62.3331 219.964 62.1888 219.964 62.0085C219.964 61.8642 219.928 61.72 219.856 61.6478C219.784 61.5396 219.712 61.4675 219.603 61.4314C219.495 61.3954 219.351 61.3593 219.207 61.3593C218.99 61.3593 218.81 61.3593 218.666 61.3954C218.521 61.4314 218.413 61.4675 218.341 61.5036C218.269 61.5396 218.197 61.5757 218.197 61.6118C218.161 61.6478 218.161 61.6839 218.161 61.72V63.6314Z" fill="#808080"/>
<path d="M226.24 58.6206C226.276 58.5484 226.313 58.4763 226.349 58.4402C226.385 58.4042 226.421 58.3681 226.493 58.3681C226.529 58.332 226.601 58.332 226.637 58.332C226.709 58.332 226.781 58.332 226.854 58.332C226.926 58.332 227.034 58.332 227.106 58.3681C227.178 58.3681 227.25 58.4042 227.322 58.4402C227.394 58.4763 227.431 58.5124 227.467 58.5484C227.503 58.5845 227.503 58.6566 227.467 58.7288L224.437 64.932C224.401 65.0041 224.365 65.0762 224.329 65.1123C224.293 65.1484 224.221 65.1844 224.185 65.2205C224.113 65.2565 224.076 65.2565 224.004 65.2565C223.932 65.2565 223.86 65.2565 223.788 65.2565C223.716 65.2565 223.644 65.2565 223.536 65.2205C223.463 65.2205 223.391 65.1844 223.355 65.1483C223.319 65.1123 223.247 65.0762 223.247 65.0402C223.211 65.0041 223.247 64.932 223.247 64.8598L226.24 58.6206Z" fill="#222957"/>
<path d="M229.738 62.7307C229.774 62.6946 229.81 62.6946 229.81 62.6585C229.81 62.6225 229.81 62.6225 229.81 62.5864C229.81 62.5504 229.81 62.5504 229.81 62.5143C229.81 62.4782 229.774 62.4782 229.738 62.4422L228.079 61.3602C227.971 61.2881 227.899 61.2159 227.826 61.1438C227.754 61.0717 227.718 61.0356 227.718 60.9995C227.682 60.9635 227.682 60.9274 227.682 60.8553C227.682 60.8192 227.682 60.7832 227.682 60.711C227.682 60.6028 227.718 60.4946 227.754 60.4225C227.79 60.3504 227.862 60.3143 227.935 60.2782C227.971 60.2782 228.007 60.2422 228.043 60.2422C228.079 60.2422 228.115 60.2422 228.151 60.2422C228.295 60.2422 228.476 60.2782 228.584 60.3504C228.692 60.4225 228.836 60.4946 228.98 60.5668L230.423 61.5405C230.531 61.6127 230.603 61.6848 230.676 61.7569C230.748 61.829 230.82 61.9012 230.856 61.9733C230.892 62.0454 230.928 62.1176 230.964 62.2258C231 62.2979 231 62.4061 231 62.4782V62.6585C231 62.7667 231 62.8389 230.964 62.9471C230.928 63.0192 230.928 63.0913 230.856 63.1635C230.82 63.2356 230.748 63.3077 230.676 63.3799C230.603 63.452 230.531 63.5241 230.423 63.5962L228.98 64.57C228.836 64.6782 228.692 64.7503 228.584 64.7864C228.476 64.8225 228.295 64.8946 228.151 64.8946C228.115 64.8946 228.079 64.8946 228.043 64.8946C228.007 64.8946 227.971 64.8946 227.935 64.8585C227.862 64.8225 227.79 64.7864 227.754 64.7143C227.718 64.6421 227.682 64.5339 227.682 64.4257C227.682 64.3897 227.682 64.3536 227.682 64.2815C227.682 64.2454 227.682 64.2094 227.718 64.1372C227.754 64.1012 227.79 64.029 227.826 63.993C227.899 63.9208 227.971 63.8848 228.079 63.7766L229.738 62.7307Z" fill="#222957"/>
<path d="M50.0611 45.8537C54.0647 45.8537 57.3102 42.6081 57.3102 38.6046C57.3102 34.601 54.0647 31.3555 50.0611 31.3555C46.0575 31.3555 42.812 34.601 42.812 38.6046C42.812 42.6081 46.0575 45.8537 50.0611 45.8537Z" fill="url(#paint0_linear_1509_12550)"/>
<path d="M68.8882 23.7093V23.6733C68.816 23.4569 68.7439 23.2405 68.6718 23.0241C67.6259 20.3553 66.2193 17.7946 64.4882 15.3783C60.1604 9.35538 54.2096 4.91936 47.3212 2.53906C47.4294 2.57513 47.5015 2.61119 47.6097 2.64726C50.7834 4.27019 51.3965 9.03079 48.5474 11.375C47.5376 12.1685 46.2753 12.6012 44.9769 12.5291C44.7966 12.5291 44.5802 12.4931 44.3999 12.457V12.4931C51.1802 15.0176 56.4096 20.3192 59.0063 26.8109L59.0784 26.9552C59.1145 27.0273 59.1145 27.0634 59.1506 27.1355C59.8719 28.8666 61.4587 30.165 63.5144 30.3453C66.1111 30.5617 68.5275 28.7584 69.0324 26.1978C69.1767 25.3323 69.1406 24.4667 68.8882 23.7093Z" fill="url(#paint1_linear_1509_12550)"/>
<path d="M44.9748 12.5283C46.2371 12.6004 47.5354 12.1677 48.5452 11.3742C51.4304 9.02999 50.7813 4.26939 47.6075 2.64646C47.5354 2.61039 47.4272 2.57433 47.319 2.53826C47.1387 2.46613 46.9223 2.394 46.7059 2.32187L46.5977 2.28581C44.9026 1.74483 43.1715 1.31205 41.3683 1.02352C31.9913 -0.527278 22.6144 1.6727 14.8964 7.22673C7.17847 12.7447 2.09328 20.9676 0.54248 30.3085H0.578546C1.29985 27.82 3.78835 26.2331 6.38504 26.6659C8.98173 27.0986 10.8211 29.4068 10.7129 32.0035H10.7489C13.021 18.2987 26.0045 8.99393 39.7093 11.23C41.1879 11.4824 42.6305 11.8431 44.0371 12.348C44.1813 12.3841 44.2895 12.4201 44.4338 12.4562C44.6141 12.4922 44.7945 12.5283 44.9748 12.5283Z" fill="url(#paint2_linear_1509_12550)"/>
<path d="M28.3143 67.5663C27.8455 65.5467 28.6389 63.3828 30.334 62.1565C31.0913 61.6156 31.9569 61.291 32.8946 61.2188V61.1467C32.4258 61.1107 31.9569 61.0385 31.5241 60.9664C18.1079 58.7664 8.87519 46.2518 10.6424 32.8356C10.6424 32.7995 10.6424 32.7995 10.6424 32.7634V32.5831C10.6424 32.547 10.6424 32.511 10.6424 32.511C10.6785 32.3306 10.6785 32.1503 10.6785 31.97C10.7866 29.3733 8.94732 27.0651 6.35063 26.6323C3.75394 26.1996 1.26544 27.8225 0.544136 30.2749C0.472005 30.4552 0.43594 30.6716 0.399875 30.888L0.327745 31.3208C-0.898471 40.3371 1.33757 49.3173 6.67522 56.7468C12.1932 64.4647 20.4161 69.5499 29.7569 71.1007C30.4061 71.2089 31.0553 71.281 31.7405 71.3532V71.245C30.1176 70.7761 28.7471 69.3335 28.3143 67.5663Z" fill="url(#paint3_linear_1509_12550)"/>
<path d="M65.1376 40.9455C62.6491 40.5488 60.2328 41.9553 59.4033 44.3356C55.8328 54.6863 45.8428 61.6109 34.8429 61.2502C34.6986 61.2502 34.5904 61.2502 34.4462 61.2502C34.4101 61.2502 34.374 61.2502 34.338 61.2502C34.2658 61.2502 34.2298 61.2502 34.1576 61.2502C33.9412 61.2502 33.7609 61.2141 33.5445 61.2141C33.3281 61.2141 33.1117 61.2141 32.8593 61.2502C31.9577 61.3223 31.056 61.6469 30.2987 62.1879C28.6036 63.3781 27.8102 65.542 28.279 67.5977C28.7118 69.3649 30.0462 70.8075 31.7773 71.3485C31.9937 71.4206 32.2462 71.4927 32.4986 71.5288H32.5347C32.5708 71.5288 32.6429 71.5288 32.679 71.5288C32.7872 71.5288 32.8954 71.5648 33.0396 71.5648C41.3346 72.178 49.4853 69.9058 56.3017 65.001C62.3606 60.6732 66.7966 54.6863 69.1769 47.7979C70.2228 44.6963 68.3114 41.4504 65.1376 40.9455Z" fill="url(#paint4_linear_1509_12550)"/>
<defs>
<linearGradient id="paint0_linear_1509_12550" x1="43.7621" y1="42.2362" x2="56.3287" y2="34.9809" gradientUnits="userSpaceOnUse">
<stop stop-color="#701321"/>
<stop offset="0.7748" stop-color="#A91356"/>
</linearGradient>
<linearGradient id="paint1_linear_1509_12550" x1="51.9068" y1="9.70564" x2="65.8444" y2="32.2348" gradientUnits="userSpaceOnUse">
<stop offset="0.0148515" stop-color="#2E5C9A"/>
<stop offset="0.9579" stop-color="#60B19B"/>
</linearGradient>
<linearGradient id="paint2_linear_1509_12550" x1="8.27921" y1="23.4608" x2="47.2005" y2="-0.14079" gradientUnits="userSpaceOnUse">
<stop stop-color="#0065A3"/>
<stop offset="1" stop-color="#41AAAC"/>
</linearGradient>
<linearGradient id="paint3_linear_1509_12550" x1="5.58584" y1="37.3054" x2="26.1977" y2="68.6582" gradientUnits="userSpaceOnUse">
<stop stop-color="#259ED0"/>
<stop offset="0.1829" stop-color="#2586BA"/>
<stop offset="0.5481" stop-color="#245A94"/>
<stop offset="0.8328" stop-color="#233F7C"/>
<stop offset="1" stop-color="#233573"/>
</linearGradient>
<linearGradient id="paint4_linear_1509_12550" x1="30.31" y1="53.1421" x2="67.3707" y2="59.2456" gradientUnits="userSpaceOnUse">
<stop stop-color="#201637"/>
<stop offset="0.6127" stop-color="#0E3066"/>
<stop offset="1" stop-color="#024286"/>
</linearGradient>
</defs>
</svg>
