<?xml version="1.0" encoding="UTF-8"?>
<svg xmlns="http://www.w3.org/2000/svg" width="180" height="56" viewBox="0 0 180 56" fill="none">
  <path d="M80.069 17.3672C80.5446 17.3672 80.9363 17.5349 81.272 17.8702C81.6077 18.2056 81.7756 18.5968 81.7756 19.0719C81.7756 19.547 81.6077 19.9383 81.272 20.2736C80.9363 20.609 80.5446 20.7767 80.069 20.7767H73.2709C70.921 20.7767 68.9347 21.6151 67.2561 23.2639C65.6055 24.9128 64.7663 26.9249 64.7663 29.2725C64.7663 31.62 65.6055 33.6042 67.2561 35.281C68.9067 36.9298 70.921 37.7682 73.2709 37.7682H80.069C80.5446 37.7682 80.9363 37.9359 81.272 38.2713C81.6077 38.6066 81.7756 38.9979 81.7756 39.473C81.7756 39.9481 81.6077 40.3393 81.272 40.6747C80.9363 41.01 80.5446 41.1777 80.069 41.1777H73.2709C69.9978 41.1777 67.2002 40.0319 64.8782 37.7123C62.5562 35.3928 61.4092 32.5981 61.4092 29.3284C61.4092 26.0586 62.5562 23.2639 64.8782 20.9444C67.2002 18.6248 69.9978 17.479 73.2709 17.479H80.069V17.3672Z" fill="white"></path>
  <path d="M80.0693 41.5413H73.2712C69.8862 41.5413 66.9487 40.3396 64.5708 37.9362C62.1649 35.5607 60.9619 32.6263 60.9619 29.2448C60.9619 25.8632 62.1649 22.9288 64.5708 20.5534C66.9767 18.15 69.8862 16.9482 73.2712 16.9482H80.0693C80.6568 16.9482 81.1604 17.1718 81.58 17.5631C81.9997 17.9823 82.1955 18.4853 82.1955 19.0722C82.1955 19.6591 81.9717 20.1621 81.58 20.5813C81.1604 21.0005 80.6568 21.1961 80.0693 21.1961H73.2712C71.0612 21.1961 69.1308 21.9786 67.5642 23.5436C65.9975 25.1087 65.2142 27.037 65.2142 29.2448C65.2142 31.4525 65.9975 33.3809 67.5642 34.9459C69.1308 36.5109 71.0612 37.2934 73.2712 37.2934H80.0693C80.6568 37.2934 81.1604 37.517 81.58 37.9082C81.9997 38.3274 82.1955 38.8305 82.1955 39.4173C82.1955 40.0042 81.9717 40.5073 81.58 40.9265C81.1324 41.3177 80.6289 41.5413 80.0693 41.5413ZM73.2712 17.7866C70.11 17.7866 67.3963 18.9045 65.1583 21.1402C62.9202 23.376 61.8012 26.0868 61.8012 29.2448C61.8012 32.4027 62.9202 35.1135 65.1583 37.3493C67.3963 39.585 70.11 40.7029 73.2712 40.7029H80.0693C80.433 40.7029 80.7128 40.5911 80.9646 40.3396C81.2163 40.0881 81.3282 39.7806 81.3282 39.4453C81.3282 39.1099 81.2163 38.8025 80.9646 38.551C80.7128 38.2995 80.405 38.1877 80.0693 38.1877H73.2712C70.8094 38.1877 68.7112 37.3213 66.9767 35.5886C65.2422 33.856 64.375 31.732 64.375 29.3007C64.375 26.8414 65.2422 24.7454 66.9767 23.0127C68.7112 21.28 70.8374 20.4136 73.2712 20.4136H80.0693C80.433 20.4136 80.7128 20.3018 80.9646 20.0503C81.2163 19.7988 81.3282 19.4914 81.3282 19.156C81.3282 18.8207 81.2163 18.5133 80.9646 18.2617C80.7128 18.0102 80.405 17.8984 80.0693 17.8984H73.2712V17.7866Z" fill="white"></path>
  <path d="M102.171 24.3824C104.073 26.2828 105.052 28.6024 105.052 31.3132C105.052 34.024 104.101 36.3436 102.171 38.2439C100.268 40.1443 97.9462 41.1224 95.2326 41.1224C92.5189 41.1224 90.1969 40.1723 88.2946 38.2439C86.3922 36.3436 85.4131 34.024 85.4131 31.3132C85.4131 28.6024 86.3643 26.2828 88.2946 24.3824C90.1969 22.482 92.5189 21.5039 95.2326 21.5039C97.9462 21.5039 100.268 22.4541 102.171 24.3824ZM95.2326 24.2986C93.3023 24.2986 91.6517 24.9693 90.2809 26.3387C88.9101 27.7081 88.2386 29.3569 88.2386 31.2852C88.2386 33.2135 88.9101 34.8624 90.2809 36.2318C91.6517 37.6012 93.3023 38.2719 95.2326 38.2719C97.1629 38.2719 98.8135 37.6012 100.184 36.2318C101.555 34.8624 102.227 33.2135 102.227 31.2852C102.227 29.3569 101.555 27.7081 100.184 26.3387C98.8135 24.9972 97.1629 24.2986 95.2326 24.2986Z" fill="white"></path>
  <path d="M95.2323 41.5399C92.4068 41.5399 89.9729 40.5339 87.9866 38.5497C86.0003 36.5654 84.9932 34.1341 84.9932 31.3115C84.9932 28.4889 86.0003 26.0575 87.9866 24.0733C89.9729 22.0891 92.4068 21.083 95.2323 21.083C98.0579 21.083 100.492 22.0891 102.478 24.0733C104.464 26.0575 105.471 28.4889 105.471 31.3115C105.471 34.1341 104.464 36.5654 102.478 38.5497C100.492 40.5339 98.0579 41.5399 95.2323 41.5399ZM95.2323 21.9214C92.6585 21.9214 90.4205 22.8436 88.602 24.6602C86.7836 26.4767 85.8604 28.7124 85.8604 31.2835C85.8604 33.8546 86.7836 36.0903 88.602 37.9069C90.4205 39.7234 92.6585 40.6456 95.2323 40.6456C97.8061 40.6456 100.044 39.7234 101.863 37.9069C103.681 36.0903 104.604 33.8546 104.604 31.2835C104.604 28.7124 103.681 26.4767 101.863 24.6602C100.044 22.8436 97.8061 21.9214 95.2323 21.9214ZM95.2323 38.7173C93.1901 38.7173 91.4276 37.9907 89.9729 36.5375C88.5181 35.0843 87.7907 33.3236 87.7907 31.2835C87.7907 29.2434 88.5181 27.4828 89.9729 26.0296C91.4276 24.5763 93.1901 23.8497 95.2323 23.8497C97.2746 23.8497 99.037 24.5763 100.492 26.0296C101.947 27.4828 102.674 29.2434 102.674 31.2835C102.674 33.3236 101.947 35.0843 100.492 36.5375C99.037 37.9907 97.2746 38.7173 95.2323 38.7173ZM95.2323 24.7161C93.3859 24.7161 91.8752 25.3588 90.5883 26.6444C89.3014 27.9299 88.658 29.467 88.658 31.2835C88.658 33.128 89.3014 34.6371 90.5883 35.9227C91.8752 37.2082 93.4139 37.851 95.2323 37.851C97.0787 37.851 98.5894 37.2082 99.8763 35.9227C101.163 34.6371 101.807 33.1001 101.807 31.2835C101.807 29.4391 101.163 27.9299 99.8763 26.6444C98.5894 25.3588 97.0787 24.7161 95.2323 24.7161Z" fill="white"></path>
  <path d="M115.85 21.5039C118.564 21.5039 120.886 22.4541 122.788 24.3824C124.691 26.2828 125.67 28.6024 125.67 31.3132C125.67 34.024 124.719 36.3436 122.788 38.2439C120.886 40.1443 118.564 41.1224 115.85 41.1224H110.255C109.864 41.1224 109.556 40.9827 109.276 40.7032C108.996 40.4238 108.856 40.0884 108.856 39.7251V22.9292C108.856 22.5379 108.996 22.2305 109.276 21.9511C109.556 21.6716 109.892 21.5319 110.255 21.5319H115.85V21.5039ZM115.85 38.2998C117.781 38.2998 119.431 37.6291 120.802 36.2597C122.173 34.8903 122.844 33.2415 122.844 31.3132C122.844 29.3849 122.173 27.736 120.802 26.3666C119.431 24.9972 117.781 24.3265 115.85 24.3265H111.654V38.3278H115.85V38.2998Z" fill="white"></path>
  <path d="M115.85 41.5413H110.255C109.751 41.5413 109.332 41.3736 108.968 41.0103C108.604 40.647 108.437 40.2278 108.437 39.7248V22.9288C108.437 22.4258 108.604 22.0066 108.968 21.6433C109.332 21.28 109.751 21.1123 110.255 21.1123H115.85C118.676 21.1123 121.11 22.1184 123.096 24.1026C125.082 26.0868 126.089 28.5182 126.089 31.3408C126.089 34.1634 125.082 36.5947 123.096 38.5789C121.11 40.5352 118.676 41.5413 115.85 41.5413ZM110.255 21.9228C109.975 21.9228 109.751 22.0066 109.556 22.2022C109.36 22.3978 109.276 22.6214 109.276 22.9009V39.6968C109.276 39.9763 109.36 40.1999 109.556 40.3955C109.751 40.5911 109.975 40.6749 110.255 40.6749H115.85C118.424 40.6749 120.662 39.7527 122.48 37.9362C124.299 36.1196 125.222 33.8839 125.222 31.3128C125.222 28.7417 124.299 26.506 122.48 24.6895C120.662 22.8729 118.424 21.9507 115.85 21.9507H110.255V21.9228ZM115.85 38.7187H111.206V23.879H115.85C117.892 23.879 119.655 24.6056 121.11 26.0589C122.564 27.5121 123.292 29.2727 123.292 31.3128C123.292 33.3529 122.564 35.1136 121.11 36.5668C119.655 37.9921 117.892 38.7187 115.85 38.7187ZM112.073 37.8803H115.85C117.697 37.8803 119.207 37.2375 120.494 35.952C121.781 34.6664 122.424 33.1294 122.424 31.3128C122.424 29.4683 121.781 27.9592 120.494 26.6737C119.207 25.3881 117.669 24.7454 115.85 24.7454H112.073V37.8803Z" fill="white"></path>
  <path d="M129.055 22.9012C129.055 22.51 129.195 22.2026 129.474 21.9231C129.754 21.6436 130.09 21.5039 130.453 21.5039C130.817 21.5039 131.153 21.6436 131.433 21.9231C131.712 22.2026 131.852 22.5379 131.852 22.9012V39.6972C131.852 40.0884 131.712 40.3958 131.433 40.6753C131.153 40.9548 130.817 41.0945 130.453 41.0945C130.09 41.0945 129.754 40.9548 129.474 40.6753C129.195 40.3958 129.055 40.0605 129.055 39.6972V22.9012Z" fill="white"></path>
  <path d="M130.453 41.5413C129.95 41.5413 129.53 41.3736 129.166 41.0103C128.803 40.647 128.635 40.2278 128.635 39.7248V22.9288C128.635 22.4258 128.803 22.0066 129.166 21.6433C129.53 21.28 129.95 21.1123 130.453 21.1123C130.957 21.1123 131.376 21.28 131.74 21.6433C132.104 22.0066 132.272 22.4258 132.272 22.9288V39.7248C132.272 40.2278 132.104 40.647 131.74 41.0103C131.376 41.3736 130.957 41.5413 130.453 41.5413ZM130.453 21.9228C130.173 21.9228 129.95 22.0066 129.754 22.2022C129.558 22.3978 129.474 22.6214 129.474 22.9009V39.6968C129.474 39.9763 129.558 40.1999 129.754 40.3955C129.95 40.5911 130.173 40.6749 130.453 40.6749C130.733 40.6749 130.957 40.5911 131.153 40.3955C131.348 40.1999 131.432 39.9763 131.432 39.6968V22.9009C131.432 22.6214 131.348 22.3978 131.153 22.2022C130.929 22.0066 130.705 21.9228 130.453 21.9228Z" fill="white"></path>
  <path d="M154.317 17.3672C154.793 17.3672 155.184 17.5349 155.52 17.8702C155.856 18.2056 156.024 18.5968 156.024 19.0719C156.024 19.547 155.856 19.9383 155.52 20.2736C155.184 20.609 154.793 20.7767 154.317 20.7767H147.519C145.169 20.7767 143.183 21.6151 141.504 23.2639C139.854 24.9128 139.014 26.9249 139.014 29.2725C139.014 31.62 139.854 33.6042 141.504 35.281C143.155 36.9298 145.169 37.7682 147.519 37.7682H152.611V30.9772H147.519C147.043 30.9772 146.652 30.8095 146.316 30.4742C145.98 30.1388 145.812 29.7475 145.812 29.2725C145.812 28.7974 145.98 28.4061 146.316 28.0708C146.652 27.7354 147.043 27.5677 147.519 27.5677H154.317C154.793 27.5677 155.184 27.7354 155.52 28.0708C155.856 28.4061 156.024 28.7974 156.024 29.2725V39.445C156.024 39.9201 155.856 40.3114 155.52 40.6467C155.184 40.9821 154.793 41.1498 154.317 41.1498H147.519C144.246 41.1498 141.448 40.004 139.126 37.6844C136.804 35.3648 135.657 32.5702 135.657 29.3004C135.657 26.0306 136.804 23.236 139.126 20.9164C141.448 18.5968 144.246 17.451 147.519 17.451H154.317V17.3672Z" fill="white"></path>
  <path d="M154.318 41.316H147.52C144.191 41.316 141.309 40.1143 138.959 37.7668C136.609 35.4193 135.406 32.5408 135.406 29.2152C135.406 25.8895 136.609 23.011 138.959 20.6635C141.309 18.316 144.191 17.1143 147.52 17.1143H154.318C154.849 17.1143 155.297 17.3099 155.661 17.6732C156.024 18.0365 156.22 18.5116 156.22 19.0146C156.22 19.5456 156.024 19.9928 155.661 20.3561C155.297 20.7194 154.821 20.915 154.318 20.915H147.52C145.254 20.915 143.267 21.7255 141.673 23.3464C140.05 24.9673 139.239 26.9235 139.239 29.1872C139.239 31.4509 140.05 33.4351 141.673 35.028C143.295 36.649 145.254 37.4594 147.52 37.4594H152.388V31.0876H147.52C146.988 31.0876 146.541 30.8919 146.177 30.5286C145.813 30.1653 145.617 29.6902 145.617 29.1872C145.617 28.6562 145.813 28.2091 146.177 27.8458C146.541 27.4825 147.016 27.2868 147.52 27.2868H154.318C154.849 27.2868 155.297 27.4825 155.661 27.8458C156.024 28.2091 156.22 28.6842 156.22 29.1872V39.3598C156.22 39.8908 156.024 40.3379 155.661 40.7012C155.297 41.1204 154.849 41.316 154.318 41.316ZM147.548 17.5614C144.331 17.5614 141.561 18.7072 139.295 20.9709C137.029 23.2346 135.882 26.0013 135.882 29.2152C135.882 32.429 137.029 35.1957 139.295 37.4594C141.561 39.7231 144.331 40.8689 147.548 40.8689H154.346C154.766 40.8689 155.101 40.7292 155.381 40.4217C155.689 40.1143 155.829 39.779 155.829 39.3877V29.2152C155.829 28.796 155.689 28.4606 155.381 28.1811C155.073 27.9017 154.738 27.734 154.346 27.734H147.548C147.128 27.734 146.792 27.8737 146.513 28.1811C146.205 28.4885 146.065 28.8239 146.065 29.2152C146.065 29.6344 146.205 29.9697 146.513 30.2492C146.82 30.5566 147.156 30.6963 147.548 30.6963H152.863V37.9065H147.548C145.17 37.9065 143.1 37.0402 141.393 35.3634C139.715 33.6866 138.847 31.6186 138.847 29.2152C138.847 26.8397 139.715 24.7716 141.393 23.0669C143.072 21.3901 145.142 20.5238 147.548 20.5238H154.346C154.766 20.5238 155.101 20.384 155.381 20.0766C155.689 19.7692 155.829 19.4338 155.829 19.0426C155.829 18.6234 155.689 18.288 155.381 18.0086C155.073 17.7011 154.738 17.5614 154.346 17.5614H147.548V17.5614Z" fill="white"></path>
  <path d="M176.027 24.3824C177.929 26.2828 178.909 28.6024 178.909 31.3132C178.909 34.024 177.957 36.3436 176.027 38.2439C174.125 40.1443 171.803 41.1224 169.089 41.1224C166.375 41.1224 164.053 40.1723 162.151 38.2439C160.249 36.3436 159.27 34.024 159.27 31.3132C159.27 28.6024 160.221 26.2828 162.151 24.3824C164.053 22.482 166.375 21.5039 169.089 21.5039C171.803 21.5039 174.097 22.4541 176.027 24.3824ZM169.089 24.2986C167.159 24.2986 165.508 24.9693 164.137 26.3387C162.767 27.7081 162.095 29.3569 162.095 31.2852C162.095 33.2135 162.767 34.8624 164.137 36.2318C165.508 37.6012 167.159 38.2719 169.089 38.2719C171.019 38.2719 172.67 37.6012 174.041 36.2318C175.412 34.8624 176.083 33.2135 176.083 31.2852C176.083 29.3569 175.412 27.7081 174.041 26.3387C172.67 24.9972 171.019 24.2986 169.089 24.2986Z" fill="white"></path>
  <path d="M169.089 41.3184C166.319 41.3184 163.941 40.3403 162.011 38.384C160.052 36.4277 159.073 34.0523 159.073 31.3135C159.073 28.5468 160.052 26.1713 162.011 24.243C163.969 22.2867 166.347 21.3086 169.089 21.3086C171.83 21.3086 174.236 22.2867 176.166 24.243C178.097 26.1993 179.104 28.5747 179.104 31.3135C179.104 34.0802 178.125 36.4557 176.166 38.384C174.208 40.3403 171.83 41.3184 169.089 41.3184ZM169.089 21.7278C166.459 21.7278 164.165 22.678 162.29 24.5225C160.416 26.3949 159.493 28.6586 159.493 31.3135C159.493 33.9405 160.444 36.2321 162.29 38.1045C164.165 39.9769 166.431 40.8992 169.089 40.8992C171.718 40.8992 174.012 39.949 175.887 38.1045C177.761 36.2321 178.684 33.9684 178.684 31.3135C178.684 28.6865 177.733 26.3949 175.887 24.5225C174.012 22.65 171.718 21.7278 169.089 21.7278ZM169.089 38.5237C167.102 38.5237 165.396 37.8251 163.997 36.3998C162.598 35.0024 161.871 33.2698 161.871 31.3135C161.871 29.3293 162.57 27.6245 163.997 26.2272C165.396 24.8299 167.13 24.1033 169.089 24.1033C171.047 24.1033 172.781 24.8019 174.18 26.2272C175.579 27.6245 176.306 29.3572 176.306 31.3135C176.306 33.2977 175.607 35.0024 174.18 36.3998C172.753 37.7971 171.075 38.5237 169.089 38.5237ZM169.089 24.5225C167.214 24.5225 165.592 25.1932 164.277 26.5067C162.962 27.8202 162.29 29.4411 162.29 31.3135C162.29 33.1859 162.962 34.8068 164.277 36.1203C165.592 37.4338 167.214 38.1045 169.089 38.1045C170.963 38.1045 172.586 37.4338 173.9 36.1203C175.215 34.8068 175.887 33.1859 175.887 31.3135C175.887 29.4411 175.215 27.8481 173.9 26.5067C172.558 25.1932 170.935 24.5225 169.089 24.5225Z" fill="white"></path>
  <path d="M95.5113 49.9251C95.4554 49.9251 95.3714 49.9251 95.2875 49.9251C95.2036 49.9251 95.1197 49.9251 95.0078 49.8971C94.9238 49.8971 94.8119 49.8692 94.728 49.8412C94.6441 49.8133 94.5322 49.7853 94.4482 49.7574V51.1547C94.4482 51.2106 94.4482 51.2386 94.4203 51.2665C94.4203 51.2944 94.3923 51.3224 94.3643 51.3224C94.3363 51.3503 94.3084 51.3503 94.2804 51.3503C94.2524 51.3503 94.1965 51.3503 94.1685 51.3503C94.1125 51.3503 94.0286 51.3503 93.9727 51.3503C93.8887 51.3503 93.8328 51.3224 93.7488 51.2944C93.6929 51.2665 93.6369 51.2385 93.581 51.2106C93.525 51.1827 93.4971 51.1268 93.4971 51.0429V46.9907C93.4971 46.9068 93.525 46.823 93.581 46.7391C93.6369 46.6832 93.7209 46.5994 93.8328 46.5715C93.9447 46.5156 94.0566 46.4876 94.1965 46.4317C94.3363 46.4038 94.4762 46.3758 94.6161 46.3479C94.756 46.3199 94.9238 46.3199 95.0637 46.292C95.2316 46.292 95.3714 46.292 95.5113 46.292C95.7631 46.292 95.9869 46.3479 96.1548 46.4317C96.3226 46.5156 96.4625 46.6553 96.5464 46.823C96.6303 46.9907 96.7143 47.1863 96.7422 47.4099C96.7702 47.6334 96.7982 47.885 96.7982 48.1644V48.1924C96.7982 48.4159 96.7702 48.6395 96.7422 48.8351C96.7143 49.0308 96.6303 49.2264 96.5464 49.3661C96.4625 49.5059 96.3226 49.6456 96.1548 49.7294C95.9869 49.8971 95.7631 49.9251 95.5113 49.9251ZM94.4482 48.891C94.4482 48.9469 94.4762 48.9749 94.5322 49.0028C94.5881 49.0308 94.6441 49.0587 94.728 49.0587C94.8119 49.0867 94.8958 49.0867 94.9798 49.0867C95.0637 49.0867 95.1756 49.1146 95.2595 49.1146C95.3714 49.1146 95.4554 49.1146 95.5393 49.1146C95.6232 49.1146 95.6792 49.0587 95.7071 49.0308C95.7631 48.9749 95.7911 48.919 95.819 48.8072C95.847 48.7233 95.847 48.5836 95.847 48.4439V48.0526C95.847 47.885 95.847 47.7732 95.847 47.6334C95.847 47.5216 95.819 47.4099 95.7631 47.354C95.7071 47.2701 95.6512 47.2142 95.5673 47.1863C95.4833 47.1583 95.3714 47.1304 95.2595 47.1304C95.0917 47.1304 94.9518 47.1304 94.8399 47.1583C94.728 47.1863 94.6441 47.2142 94.5881 47.2422C94.5322 47.2701 94.4762 47.2981 94.4762 47.326C94.4482 47.354 94.4482 47.3819 94.4482 47.4099V48.891Z" fill="white"></path>
  <path d="M100.267 49.9258C100.016 49.9258 99.7918 49.8979 99.624 49.8699C99.4561 49.814 99.2883 49.7581 99.1764 49.6743C99.0644 49.5904 98.9526 49.5066 98.8686 49.3948C98.7847 49.283 98.7287 49.1712 98.7008 49.0315C98.6728 48.8918 98.6448 48.752 98.6168 48.6123C98.6168 48.4726 98.5889 48.3049 98.5889 48.1372V48.1093C98.5889 47.9416 98.5889 47.8019 98.6168 47.6621C98.6168 47.5224 98.6448 47.3827 98.7008 47.2429C98.7287 47.1032 98.8127 46.9914 98.8686 46.8796C98.9526 46.7678 99.0365 46.684 99.1764 46.6002C99.2883 46.5163 99.4561 46.4604 99.624 46.4045C99.7918 46.3486 100.016 46.3486 100.267 46.3486H100.295C100.547 46.3486 100.771 46.3766 100.939 46.4045C101.107 46.4604 101.275 46.5163 101.386 46.6002C101.498 46.684 101.61 46.7678 101.694 46.8796C101.778 46.9914 101.834 47.1032 101.862 47.2429C101.89 47.3827 101.918 47.5224 101.946 47.6621C101.946 47.8019 101.974 47.9695 101.974 48.1093V48.1372C101.974 48.3049 101.974 48.4446 101.946 48.6123C101.946 48.752 101.918 48.8918 101.862 49.0315C101.834 49.1712 101.75 49.283 101.694 49.3948C101.61 49.5066 101.526 49.5904 101.386 49.6743C101.275 49.7581 101.107 49.814 100.939 49.8699C100.743 49.8979 100.547 49.9258 100.267 49.9258ZM100.295 49.1433C100.463 49.1433 100.603 49.1154 100.687 49.0874C100.771 49.0315 100.855 48.9756 100.911 48.8918C100.967 48.8079 100.995 48.7241 100.995 48.5844C100.995 48.4726 101.023 48.3328 101.023 48.1652V48.0254C101.023 47.8857 101.023 47.746 100.995 47.6342C100.995 47.5224 100.967 47.4106 100.911 47.3268C100.855 47.2429 100.799 47.187 100.687 47.1311C100.603 47.0752 100.463 47.0752 100.295 47.0752H100.239C100.072 47.0752 99.9317 47.1032 99.8478 47.1311C99.7639 47.1591 99.6799 47.2429 99.624 47.3268C99.568 47.4106 99.54 47.4944 99.54 47.6342C99.54 47.746 99.5121 47.8857 99.5121 48.0254V48.1652C99.5121 48.3049 99.5121 48.4446 99.54 48.5844C99.54 48.6962 99.568 48.8079 99.624 48.8918C99.6799 48.9756 99.7359 49.0315 99.8478 49.0874C99.9317 49.1433 100.072 49.1433 100.239 49.1433H100.295Z" fill="white"></path>
  <path d="M106.254 46.5718C106.282 46.5718 106.31 46.5718 106.338 46.5718C106.366 46.5718 106.394 46.5718 106.422 46.5718C106.506 46.5718 106.617 46.5998 106.701 46.6277C106.785 46.6557 106.869 46.7116 106.953 46.7395C107.037 46.7954 107.093 46.8513 107.121 46.9351C107.177 47.019 107.205 47.1028 107.205 47.1867L107.429 49.0311C107.429 49.087 107.457 49.115 107.485 49.115C107.513 49.115 107.513 49.115 107.541 49.087C107.541 49.0591 107.569 49.0591 107.569 49.0311L107.988 46.5159C107.988 46.46 108.016 46.4321 108.044 46.4042C108.072 46.3762 108.1 46.3483 108.128 46.3483C108.156 46.3483 108.212 46.3203 108.24 46.3203C108.268 46.3203 108.324 46.3203 108.352 46.3203C108.408 46.3203 108.492 46.3203 108.548 46.3483C108.604 46.3762 108.66 46.4042 108.716 46.4321C108.772 46.46 108.8 46.5159 108.828 46.5718C108.855 46.6277 108.855 46.6836 108.855 46.7395L108.436 49.2547C108.408 49.4224 108.352 49.5342 108.296 49.618C108.24 49.7019 108.156 49.7857 108.072 49.8136C107.988 49.8695 107.904 49.8695 107.792 49.8975C107.708 49.8975 107.597 49.9254 107.513 49.9254H107.401C107.317 49.9254 107.205 49.9254 107.121 49.8975C107.037 49.8695 106.953 49.8416 106.869 49.7857C106.785 49.7298 106.729 49.6739 106.673 49.5901C106.617 49.5062 106.589 49.3944 106.561 49.2547L106.282 47.4102C106.282 47.3823 106.254 47.3543 106.254 47.3543C106.226 47.3543 106.226 47.3543 106.226 47.3543H106.198C106.17 47.3543 106.17 47.3823 106.17 47.4102L105.89 49.2547C105.862 49.3944 105.834 49.5062 105.778 49.5901C105.722 49.6739 105.666 49.7298 105.582 49.7857C105.498 49.8416 105.414 49.8695 105.331 49.8975C105.247 49.9254 105.135 49.9254 105.051 49.9254H104.967C104.883 49.9254 104.799 49.9254 104.687 49.8975C104.603 49.8975 104.491 49.8695 104.407 49.8136C104.323 49.7578 104.239 49.7019 104.184 49.618C104.128 49.5342 104.072 49.3944 104.044 49.2547L103.624 46.7395C103.624 46.6836 103.624 46.6277 103.652 46.5718C103.68 46.5159 103.708 46.46 103.764 46.4321C103.82 46.4042 103.876 46.3762 103.932 46.3483C103.988 46.3203 104.072 46.3203 104.128 46.3203C104.156 46.3203 104.184 46.3203 104.239 46.3203C104.267 46.3203 104.323 46.3203 104.351 46.3483C104.379 46.3762 104.407 46.3762 104.435 46.4042C104.463 46.4321 104.491 46.46 104.491 46.5159L104.911 49.0311C104.911 49.0591 104.911 49.0591 104.939 49.087C104.939 49.115 104.967 49.115 104.995 49.115C105.023 49.115 105.051 49.087 105.051 49.0311L105.275 47.1867C105.275 47.1028 105.303 47.019 105.359 46.9351C105.414 46.8513 105.47 46.7954 105.526 46.7395C105.61 46.6836 105.666 46.6557 105.778 46.6277C105.862 46.5998 105.946 46.5718 106.058 46.5718C106.086 46.5718 106.114 46.5718 106.142 46.5718C106.17 46.5718 106.226 46.5718 106.254 46.5718Z" fill="white"></path>
  <path d="M113.109 48.389C112.997 48.4169 112.885 48.4449 112.745 48.4728C112.605 48.5008 112.465 48.5287 112.326 48.5287C112.186 48.5566 112.046 48.5567 111.906 48.5846C111.766 48.6125 111.626 48.6125 111.486 48.6125C111.486 48.6964 111.514 48.7523 111.514 48.8361C111.542 48.892 111.57 48.9479 111.626 49.0038C111.682 49.0597 111.738 49.0876 111.822 49.1156C111.906 49.1435 112.018 49.1435 112.13 49.1435C112.27 49.1435 112.409 49.1435 112.521 49.1156C112.633 49.0876 112.745 49.0876 112.829 49.0597C112.913 49.0317 112.997 49.0317 113.081 49.0038C113.165 48.9759 113.221 48.9758 113.277 48.9758C113.333 48.9758 113.389 48.9759 113.417 49.0038C113.445 49.0317 113.473 49.0597 113.501 49.0876C113.529 49.1156 113.529 49.1435 113.529 49.1994C113.529 49.2274 113.529 49.2833 113.529 49.3112C113.529 49.423 113.501 49.5068 113.417 49.5907C113.361 49.6745 113.249 49.7304 113.137 49.7863C113.025 49.8422 112.857 49.8701 112.689 49.8981C112.521 49.926 112.326 49.926 112.102 49.926C111.85 49.926 111.626 49.8981 111.458 49.8701C111.29 49.8422 111.123 49.7863 111.011 49.7025C110.899 49.6466 110.787 49.5627 110.731 49.4509C110.675 49.3392 110.619 49.2274 110.563 49.1156C110.535 48.9758 110.507 48.8361 110.479 48.6964C110.479 48.5287 110.451 48.389 110.451 48.1933C110.451 47.9139 110.479 47.6624 110.507 47.4108C110.535 47.1873 110.619 46.9916 110.731 46.824C110.843 46.6563 111.011 46.5445 111.234 46.4327C111.458 46.3209 111.738 46.293 112.102 46.293C112.326 46.293 112.549 46.3209 112.717 46.3489C112.913 46.3768 113.081 46.4607 113.221 46.5445C113.361 46.6283 113.473 46.7401 113.557 46.8799C113.64 47.0196 113.696 47.1873 113.724 47.3829C113.752 47.5226 113.724 47.6344 113.724 47.7462C113.696 47.858 113.668 47.9418 113.612 48.0257C113.556 48.1095 113.473 48.1933 113.389 48.2492C113.389 48.3051 113.277 48.361 113.109 48.389ZM112.326 47.0755C112.158 47.0755 112.018 47.1034 111.906 47.1314C111.794 47.1593 111.71 47.2152 111.654 47.299C111.598 47.3829 111.542 47.4667 111.542 47.5785C111.514 47.6903 111.514 47.8021 111.514 47.9418C111.598 47.9418 111.71 47.9139 111.794 47.9139C111.906 47.9139 111.99 47.8859 112.102 47.8859C112.214 47.8859 112.298 47.858 112.409 47.858C112.521 47.858 112.577 47.83 112.661 47.83C112.773 47.8021 112.829 47.7741 112.885 47.7182C112.913 47.6624 112.941 47.6065 112.941 47.5506C112.941 47.4667 112.913 47.4108 112.885 47.3549C112.857 47.2991 112.801 47.2432 112.745 47.2152C112.689 47.1873 112.633 47.1593 112.549 47.1314C112.465 47.0755 112.409 47.0755 112.326 47.0755Z" fill="white"></path>
  <path d="M117.333 46.3203C117.585 46.3203 117.808 46.3762 117.948 46.488C118.088 46.5718 118.172 46.7116 118.172 46.8792C118.172 46.9072 118.172 46.9631 118.172 46.991C118.172 47.019 118.144 47.0469 118.144 47.1028C118.116 47.1308 118.088 47.1587 118.06 47.1867C118.032 47.2146 117.976 47.2146 117.92 47.2146C117.864 47.2146 117.808 47.2146 117.781 47.2146C117.753 47.2146 117.697 47.1867 117.669 47.1867C117.613 47.1867 117.585 47.1587 117.501 47.1587C117.445 47.1587 117.333 47.1587 117.221 47.1587C117.109 47.1587 116.997 47.1587 116.913 47.1867C116.829 47.2146 116.773 47.2146 116.745 47.2426C116.689 47.2705 116.661 47.2984 116.661 47.3264C116.634 47.3543 116.634 47.3823 116.634 47.4102V49.7578C116.634 49.8137 116.634 49.8695 116.606 49.8975C116.578 49.9254 116.55 49.9534 116.494 49.9813C116.438 50.0093 116.41 50.0093 116.354 50.0093C116.298 50.0093 116.242 50.0093 116.186 50.0093C116.13 50.0093 116.074 50.0093 116.018 50.0093C115.962 50.0093 115.906 49.9813 115.878 49.9813C115.822 49.9534 115.794 49.9254 115.766 49.8975C115.738 49.8695 115.738 49.8137 115.738 49.7578V47.0469C115.738 46.9631 115.766 46.9072 115.822 46.8513C115.878 46.7954 115.934 46.7395 116.018 46.6836C116.102 46.6277 116.214 46.5998 116.326 46.5718C116.438 46.5439 116.55 46.5159 116.689 46.488C116.829 46.46 116.941 46.46 117.053 46.4321C117.109 46.3203 117.221 46.3203 117.333 46.3203Z" fill="white"></path>
  <path d="M122.256 48.389C122.144 48.4169 122.033 48.4449 121.893 48.4728C121.753 48.5008 121.613 48.5287 121.473 48.5287C121.333 48.5566 121.193 48.5567 121.053 48.5846C120.914 48.6125 120.774 48.6125 120.634 48.6125C120.634 48.6964 120.662 48.7523 120.662 48.8361C120.69 48.892 120.718 48.9479 120.774 49.0038C120.83 49.0597 120.886 49.0876 120.969 49.1156C121.053 49.1435 121.165 49.1435 121.277 49.1435C121.417 49.1435 121.557 49.1435 121.669 49.1156C121.781 49.0876 121.893 49.0876 121.977 49.0597C122.061 49.0317 122.144 49.0317 122.228 49.0038C122.312 48.9759 122.368 48.9758 122.424 48.9758C122.48 48.9758 122.536 48.9759 122.564 49.0038C122.592 49.0317 122.62 49.0597 122.648 49.0876C122.676 49.1156 122.676 49.1435 122.676 49.1994C122.676 49.2274 122.676 49.2833 122.676 49.3112C122.676 49.423 122.648 49.5068 122.564 49.5907C122.508 49.6745 122.396 49.7304 122.284 49.7863C122.172 49.8422 122.005 49.8701 121.837 49.8981C121.669 49.926 121.473 49.926 121.249 49.926C120.997 49.926 120.774 49.8981 120.606 49.8701C120.438 49.8422 120.27 49.7863 120.158 49.7025C120.046 49.6466 119.934 49.5627 119.878 49.4509C119.822 49.3392 119.766 49.2274 119.711 49.1156C119.683 48.9758 119.655 48.8361 119.627 48.6964C119.627 48.5287 119.599 48.389 119.599 48.1933C119.599 47.9139 119.627 47.6624 119.655 47.4108C119.683 47.1873 119.766 46.9916 119.878 46.824C119.99 46.6563 120.158 46.5445 120.382 46.4327C120.606 46.3489 120.886 46.293 121.249 46.293C121.473 46.293 121.697 46.3209 121.865 46.3489C122.061 46.3768 122.228 46.4607 122.368 46.5445C122.508 46.6283 122.62 46.7401 122.704 46.8799C122.788 47.0196 122.844 47.1873 122.872 47.3829C122.9 47.5226 122.872 47.6344 122.872 47.7462C122.844 47.858 122.816 47.9418 122.76 48.0257C122.704 48.1095 122.62 48.1933 122.536 48.2492C122.536 48.3051 122.396 48.361 122.256 48.389ZM121.445 47.0755C121.277 47.0755 121.137 47.1034 121.025 47.1314C120.914 47.1593 120.83 47.2152 120.774 47.299C120.718 47.3829 120.662 47.4667 120.662 47.5785C120.662 47.6903 120.634 47.8021 120.634 47.9418C120.718 47.9418 120.83 47.9139 120.914 47.9139C121.025 47.9139 121.109 47.8859 121.221 47.8859C121.333 47.8859 121.417 47.858 121.529 47.858C121.641 47.858 121.697 47.83 121.781 47.83C121.893 47.8021 121.949 47.7741 122.005 47.7182C122.033 47.6624 122.061 47.6065 122.061 47.5506C122.061 47.4667 122.033 47.4108 122.005 47.3549C121.977 47.2991 121.921 47.2432 121.865 47.2152C121.809 47.1873 121.753 47.1593 121.669 47.1314C121.613 47.0755 121.529 47.0755 121.445 47.0755Z" fill="white"></path>
  <path d="M125.977 46.32C126.033 46.32 126.117 46.32 126.2 46.32C126.284 46.32 126.368 46.32 126.48 46.348C126.564 46.348 126.676 46.3759 126.76 46.4039C126.844 46.4318 126.956 46.4598 127.04 46.5157V45.0904C127.04 45.0065 127.068 44.9227 127.124 44.8948C127.18 44.8668 127.236 44.8389 127.348 44.8389C127.403 44.8389 127.487 44.8389 127.543 44.8389C127.627 44.8389 127.683 44.8668 127.767 44.8948C127.823 44.9227 127.879 44.9507 127.935 44.9786C127.991 45.0345 128.019 45.0624 128.019 45.1463V49.2824C128.019 49.3662 127.991 49.4501 127.935 49.5059C127.879 49.5618 127.795 49.6177 127.683 49.6736C127.571 49.7295 127.459 49.7575 127.32 49.7854C127.18 49.8134 127.04 49.8413 126.9 49.8693C126.76 49.8972 126.592 49.8972 126.452 49.8972C126.284 49.8972 126.145 49.8972 126.005 49.8972C125.753 49.8972 125.529 49.8413 125.361 49.7575C125.193 49.6736 125.053 49.5339 124.97 49.3662C124.886 49.1985 124.802 49.0029 124.774 48.7793C124.746 48.5558 124.718 48.3042 124.718 48.0248V47.9968C124.718 47.7733 124.746 47.5497 124.774 47.3541C124.802 47.1584 124.886 46.9628 124.97 46.8231C125.053 46.6833 125.193 46.5436 125.361 46.4598C125.501 46.3759 125.697 46.32 125.977 46.32ZM126.228 49.1147C126.396 49.1147 126.536 49.1147 126.648 49.0867C126.76 49.0867 126.844 49.0588 126.9 49.0309C126.956 49.0029 127.012 48.975 127.012 48.975C127.04 48.947 127.04 48.9191 127.04 48.8911V47.41C127.04 47.3541 127.012 47.3261 126.956 47.2982C126.9 47.2702 126.844 47.2423 126.76 47.2143C126.676 47.1864 126.592 47.1584 126.508 47.1584C126.424 47.1305 126.312 47.1305 126.228 47.1305C126.117 47.1305 126.033 47.1305 125.949 47.1305C125.865 47.1305 125.809 47.1864 125.781 47.2143C125.725 47.2702 125.697 47.3261 125.669 47.4379C125.641 47.5217 125.641 47.6615 125.641 47.8012V48.1925C125.641 48.3601 125.641 48.4719 125.641 48.6117C125.641 48.7234 125.669 48.8352 125.725 48.8911C125.781 48.975 125.837 49.0309 125.893 49.0588C125.977 49.1147 126.089 49.1147 126.228 49.1147Z" fill="white"></path>
  <path d="M132.354 46.5157C132.438 46.4598 132.55 46.4318 132.634 46.4039C132.718 46.3759 132.83 46.348 132.914 46.348C132.998 46.32 133.11 46.32 133.194 46.32C133.278 46.32 133.362 46.32 133.418 46.32C133.669 46.32 133.893 46.3759 134.061 46.4598C134.229 46.5436 134.369 46.6554 134.453 46.8231C134.537 46.9628 134.621 47.1584 134.649 47.3541C134.676 47.5497 134.704 47.7733 134.704 47.9968V48.0248C134.704 48.3042 134.676 48.5558 134.649 48.7793C134.621 49.0029 134.537 49.1985 134.453 49.3662C134.369 49.5339 134.229 49.6736 134.061 49.7575C133.893 49.8413 133.669 49.8972 133.418 49.8972C133.278 49.8972 133.138 49.8972 132.97 49.8972C132.83 49.8972 132.662 49.8693 132.522 49.8693C132.382 49.8413 132.243 49.8413 132.103 49.7854C131.963 49.7575 131.851 49.7295 131.739 49.6736C131.627 49.6177 131.543 49.5618 131.487 49.5059C131.431 49.4501 131.403 49.3662 131.403 49.2824V45.1463C131.403 45.0904 131.431 45.0345 131.487 44.9786C131.543 44.9227 131.599 44.8948 131.655 44.8948C131.711 44.8668 131.795 44.8668 131.879 44.8389C131.963 44.8389 132.019 44.8389 132.075 44.8389C132.131 44.8389 132.159 44.8389 132.187 44.8389C132.215 44.8389 132.243 44.8668 132.271 44.8668C132.299 44.8948 132.327 44.8948 132.327 44.9227C132.327 44.9507 132.354 44.9786 132.354 45.0345V46.5157ZM133.166 47.1305C133.054 47.1305 132.97 47.1584 132.886 47.1584C132.802 47.1864 132.718 47.1864 132.634 47.2143C132.55 47.2423 132.494 47.2702 132.438 47.2982C132.382 47.3261 132.354 47.382 132.354 47.41V48.8911C132.354 48.9191 132.354 48.947 132.382 48.975C132.41 49.0029 132.438 49.0309 132.494 49.0309C132.55 49.0588 132.634 49.0588 132.746 49.0867C132.858 49.0867 132.998 49.1147 133.166 49.1147C133.306 49.1147 133.39 49.0868 133.474 49.0588C133.557 49.0309 133.613 48.975 133.669 48.8911C133.725 48.8073 133.725 48.7234 133.753 48.6117C133.753 48.4999 133.781 48.3601 133.781 48.1925V47.8012C133.781 47.6615 133.753 47.5217 133.753 47.4379C133.725 47.3541 133.697 47.2702 133.641 47.2143C133.585 47.1584 133.529 47.1305 133.474 47.1305C133.362 47.1305 133.278 47.1305 133.166 47.1305Z" fill="white"></path>
  <path d="M138.006 49.0868C138.006 49.1147 138.006 49.1147 138.034 49.1427L138.062 49.1706H138.09H138.118L138.201 48.9471L138.845 46.8511C138.873 46.7393 138.901 46.6554 138.929 46.5716C138.957 46.5157 138.985 46.4598 139.013 46.4319C139.041 46.4039 139.069 46.376 139.125 46.376C139.181 46.376 139.237 46.376 139.32 46.376C139.376 46.376 139.46 46.376 139.516 46.4039C139.6 46.4319 139.656 46.4598 139.712 46.5157C139.768 46.5716 139.796 46.6275 139.824 46.7113C139.852 46.7952 139.824 46.907 139.796 47.0187L139.209 48.7794C139.209 48.8073 139.209 48.8073 139.209 48.8353V48.8632L138.509 51.071C138.481 51.1548 138.453 51.2107 138.425 51.2666C138.397 51.3225 138.369 51.3784 138.341 51.4064C138.313 51.4343 138.257 51.4623 138.201 51.4902C138.145 51.4902 138.09 51.5182 138.006 51.5182C137.95 51.5182 137.866 51.5182 137.81 51.4902C137.754 51.4623 137.67 51.4343 137.642 51.4064C137.586 51.3505 137.558 51.2946 137.558 51.2107C137.53 51.1269 137.558 51.0431 137.586 50.9033L137.894 49.9811C137.838 49.9811 137.754 49.9811 137.698 49.9531C137.642 49.9252 137.558 49.8973 137.502 49.8693C137.446 49.8134 137.39 49.7575 137.334 49.6737C137.278 49.5898 137.222 49.506 137.194 49.3663L136.439 47.0187C136.411 46.907 136.383 46.7952 136.411 46.7113C136.439 46.6275 136.467 46.5716 136.523 46.5157C136.579 46.4598 136.635 46.4319 136.719 46.4039C136.803 46.376 136.859 46.376 136.915 46.376C136.998 46.376 137.054 46.376 137.11 46.376C137.166 46.376 137.194 46.4039 137.222 46.4319C137.25 46.4598 137.278 46.5157 137.306 46.5716C137.334 46.6275 137.362 46.7113 137.39 46.8511L138.006 49.0868Z" fill="white"></path>
  <path d="M146.511 44.9502C146.595 44.9502 146.651 44.9502 146.679 44.9781C146.735 44.9781 146.763 45.0061 146.763 45.062C146.791 45.0899 146.791 45.1458 146.791 45.2017C146.791 45.2576 146.791 45.3135 146.791 45.3973C146.791 45.5091 146.763 45.593 146.735 45.6489C146.707 45.7048 146.679 45.7606 146.623 45.7606C146.567 45.7886 146.539 45.7886 146.483 45.8165C146.427 45.8445 146.399 45.8165 146.371 45.8165H145.112V49.6732C145.112 49.7291 145.084 49.785 145.057 49.8129C145.029 49.8409 145.001 49.8688 144.945 49.8968C144.889 49.9247 144.833 49.9247 144.777 49.9247C144.721 49.9247 144.665 49.9247 144.609 49.9247C144.553 49.9247 144.469 49.9247 144.413 49.9247C144.357 49.9247 144.301 49.8968 144.245 49.8968C144.189 49.8688 144.161 49.8409 144.133 49.8129C144.105 49.785 144.105 49.7291 144.105 49.6732V45.8165H142.874C142.846 45.8165 142.818 45.8165 142.79 45.8165C142.763 45.8165 142.707 45.7886 142.679 45.7606C142.651 45.7327 142.595 45.6768 142.567 45.6209C142.539 45.565 142.511 45.4812 142.511 45.3973C142.511 45.3135 142.511 45.2297 142.511 45.1738C142.511 45.1179 142.539 45.062 142.539 45.034C142.567 45.0061 142.595 44.9781 142.623 44.9781C142.651 44.9781 142.707 44.9502 142.763 44.9502H146.511V44.9502Z" fill="white"></path>
  <path d="M150.958 48.389C150.847 48.4169 150.735 48.4449 150.595 48.4728C150.455 48.5008 150.315 48.5287 150.175 48.5287C150.035 48.5566 149.895 48.5567 149.756 48.5846C149.616 48.6125 149.476 48.6125 149.336 48.6125C149.336 48.6964 149.364 48.7523 149.364 48.8361C149.392 48.892 149.42 48.9479 149.476 49.0038C149.532 49.0597 149.588 49.0876 149.672 49.1156C149.756 49.1435 149.867 49.1435 149.979 49.1435C150.119 49.1435 150.259 49.1435 150.371 49.1156C150.483 49.0876 150.595 49.0876 150.679 49.0597C150.763 49.0317 150.847 49.0317 150.93 49.0038C151.014 48.9759 151.07 48.9758 151.126 48.9758C151.182 48.9758 151.238 48.9759 151.266 49.0038C151.294 49.0317 151.322 49.0597 151.35 49.0876C151.378 49.1156 151.378 49.1435 151.378 49.1994C151.378 49.2274 151.378 49.2833 151.378 49.3112C151.378 49.423 151.35 49.5068 151.266 49.5907C151.21 49.6745 151.098 49.7304 150.986 49.7863C150.875 49.8422 150.707 49.8701 150.539 49.8981C150.371 49.926 150.175 49.926 149.951 49.926C149.7 49.926 149.476 49.8981 149.308 49.8701C149.14 49.8422 148.972 49.7863 148.86 49.7025C148.748 49.6466 148.636 49.5627 148.581 49.4509C148.525 49.3392 148.469 49.2274 148.413 49.1156C148.385 48.9758 148.357 48.8361 148.329 48.6964C148.329 48.5287 148.301 48.389 148.301 48.1933C148.301 47.9139 148.329 47.6624 148.357 47.4108C148.385 47.1873 148.469 46.9916 148.581 46.824C148.692 46.6563 148.86 46.5445 149.084 46.4327C149.308 46.3489 149.588 46.293 149.951 46.293C150.175 46.293 150.399 46.3209 150.567 46.3489C150.763 46.3768 150.93 46.4607 151.07 46.5445C151.21 46.6283 151.322 46.7401 151.406 46.8799C151.49 47.0196 151.546 47.1873 151.574 47.3829C151.602 47.5226 151.574 47.6344 151.574 47.7462C151.546 47.858 151.518 47.9418 151.462 48.0257C151.406 48.1095 151.322 48.1933 151.238 48.2492C151.238 48.3051 151.126 48.361 150.958 48.389ZM150.175 47.0755C150.007 47.0755 149.867 47.1034 149.756 47.1314C149.644 47.1593 149.56 47.2152 149.504 47.299C149.448 47.3829 149.392 47.4667 149.392 47.5785C149.392 47.6903 149.364 47.8021 149.364 47.9418C149.448 47.9418 149.56 47.9139 149.644 47.9139C149.756 47.9139 149.839 47.8859 149.951 47.8859C150.063 47.8859 150.147 47.858 150.259 47.858C150.371 47.858 150.427 47.83 150.511 47.83C150.623 47.8021 150.679 47.7741 150.735 47.7182C150.763 47.6624 150.791 47.6065 150.791 47.5506C150.791 47.4667 150.763 47.4108 150.735 47.3549C150.707 47.2991 150.651 47.2432 150.595 47.2152C150.539 47.1873 150.483 47.1593 150.399 47.1314C150.315 47.0755 150.231 47.0755 150.175 47.0755Z" fill="white"></path>
  <path d="M155.015 49.9254C154.763 49.9254 154.539 49.8975 154.371 49.8695C154.204 49.8416 154.036 49.7857 153.924 49.7019C153.812 49.646 153.7 49.5621 153.644 49.4503C153.588 49.3386 153.532 49.2268 153.476 49.115C153.448 48.9752 153.42 48.8355 153.392 48.6958C153.392 48.5281 153.364 48.3884 153.364 48.1927V48.053C153.364 47.8853 153.364 47.7176 153.392 47.55C153.392 47.3823 153.42 47.2426 153.476 47.1308C153.504 46.991 153.56 46.8792 153.644 46.7954C153.7 46.6836 153.812 46.5998 153.924 46.5439C154.036 46.488 154.204 46.4321 154.371 46.3762C154.539 46.3483 154.763 46.3203 155.015 46.3203C155.239 46.3203 155.434 46.3203 155.602 46.3483C155.77 46.3762 155.91 46.4042 156.05 46.46C156.162 46.5159 156.274 46.5718 156.33 46.6557C156.386 46.7395 156.442 46.8234 156.442 46.9351C156.442 46.9631 156.442 47.019 156.442 47.0469C156.442 47.0749 156.414 47.1028 156.414 47.1587C156.386 47.1867 156.358 47.2146 156.33 47.2426C156.302 47.2705 156.246 47.2705 156.19 47.2705C156.134 47.2705 156.078 47.2705 155.994 47.2426C155.91 47.2426 155.826 47.2146 155.742 47.1867C155.658 47.1587 155.546 47.1587 155.434 47.1308C155.323 47.1028 155.183 47.1028 155.043 47.1028C154.903 47.1028 154.819 47.1028 154.735 47.1308C154.651 47.1587 154.595 47.1867 154.539 47.2426C154.483 47.2985 154.455 47.3823 154.427 47.4661C154.399 47.5779 154.399 47.7176 154.399 47.8853V48.3045C154.399 48.4443 154.399 48.5561 154.399 48.6399C154.399 48.7237 154.427 48.8076 154.483 48.8914C154.511 48.9473 154.595 49.0032 154.679 49.0311C154.763 49.0591 154.903 49.087 155.043 49.087C155.211 49.087 155.351 49.087 155.49 49.0591C155.63 49.0311 155.742 49.0311 155.854 49.0032C155.938 48.9752 155.994 48.9752 156.05 48.9752C156.106 48.9752 156.162 48.9473 156.218 48.9473C156.274 48.9473 156.33 48.9473 156.358 48.9752C156.386 49.0032 156.414 49.0311 156.442 49.0591C156.47 49.087 156.47 49.115 156.47 49.1709C156.47 49.1988 156.47 49.2547 156.47 49.2827C156.47 49.3944 156.442 49.4783 156.358 49.5621C156.302 49.646 156.19 49.7019 156.078 49.7578C155.966 49.8137 155.798 49.8416 155.63 49.8695C155.406 49.9254 155.211 49.9254 155.015 49.9254Z" fill="white"></path>
  <path d="M159.156 47.4108C159.156 47.4667 159.184 47.5226 159.24 47.5506C159.296 47.5785 159.38 47.6065 159.464 47.6344C159.548 47.6624 159.659 47.6903 159.799 47.6903C159.911 47.7182 160.051 47.7462 160.191 47.7741C160.331 47.8021 160.443 47.858 160.583 47.8859C160.695 47.9418 160.807 47.9977 160.918 48.0816C161.002 48.1654 161.086 48.2492 161.142 48.361C161.198 48.4728 161.226 48.6125 161.226 48.7802C161.226 48.8641 161.226 48.92 161.198 49.0038C161.198 49.0876 161.17 49.1715 161.114 49.2553C161.086 49.3392 161.03 49.423 160.974 49.5068C160.918 49.5907 160.834 49.6466 160.723 49.7025C160.611 49.7584 160.471 49.8143 160.331 49.8422C160.163 49.8701 159.995 49.8981 159.771 49.8981C159.576 49.8981 159.408 49.8981 159.212 49.8701C159.016 49.8422 158.848 49.8142 158.708 49.7863C158.568 49.7304 158.429 49.6745 158.345 49.5907C158.261 49.5068 158.205 49.395 158.205 49.2274C158.205 49.1435 158.233 49.0876 158.261 49.0317C158.317 48.9759 158.373 48.9479 158.457 48.9479C158.484 48.9479 158.568 48.9479 158.652 48.9758C158.736 49.0038 158.848 49.0038 158.96 49.0317C159.072 49.0597 159.212 49.0597 159.324 49.0876C159.436 49.1156 159.576 49.1156 159.715 49.1156C159.799 49.1156 159.855 49.1156 159.911 49.1156C159.967 49.1156 160.023 49.0876 160.079 49.0597C160.135 49.0317 160.163 49.0038 160.191 48.9758C160.219 48.9479 160.247 48.892 160.247 48.8361C160.247 48.7523 160.219 48.6964 160.163 48.6684C160.107 48.6125 160.023 48.5846 159.939 48.5566C159.855 48.5287 159.743 48.5008 159.604 48.4728C159.492 48.4449 159.352 48.4169 159.212 48.389C159.072 48.361 158.96 48.3051 158.82 48.2772C158.708 48.2213 158.596 48.1654 158.484 48.0816C158.401 47.9977 158.317 47.9139 158.261 47.8021C158.205 47.6903 158.177 47.5506 158.177 47.3829C158.177 47.2152 158.205 47.0475 158.289 46.9078C158.345 46.7681 158.457 46.6563 158.596 46.5724C158.736 46.4886 158.876 46.4048 159.044 46.3768C159.212 46.3209 159.408 46.293 159.632 46.293C159.659 46.293 159.715 46.293 159.799 46.293C159.883 46.293 159.967 46.293 160.079 46.3209C160.191 46.3209 160.303 46.3489 160.387 46.3768C160.471 46.4048 160.611 46.4327 160.695 46.4886C160.779 46.5445 160.862 46.6004 160.918 46.6842C160.974 46.7681 161.03 46.8519 161.03 46.9637C161.03 46.9916 161.03 47.0475 161.03 47.0755C161.03 47.1034 161.002 47.1593 160.974 47.1873C160.946 47.2152 160.918 47.2432 160.89 47.2711C160.862 47.299 160.807 47.2991 160.751 47.2991C160.695 47.2991 160.611 47.299 160.527 47.2711C160.443 47.2432 160.331 47.2432 160.219 47.2152C160.107 47.1873 159.995 47.1873 159.883 47.1593C159.771 47.1314 159.659 47.1314 159.548 47.1314C159.408 47.1314 159.324 47.1593 159.24 47.1873C159.184 47.2152 159.156 47.299 159.156 47.4108Z" fill="white"></path>
  <path d="M165.31 46.5718C165.31 46.5159 165.31 46.46 165.338 46.4321C165.366 46.4042 165.394 46.3762 165.45 46.3483C165.506 46.3203 165.534 46.3203 165.59 46.3203C165.646 46.3203 165.702 46.3203 165.758 46.3203C165.814 46.3203 165.87 46.3203 165.926 46.3203C165.982 46.3203 166.038 46.3483 166.066 46.3483C166.121 46.3762 166.149 46.4042 166.177 46.4321C166.205 46.46 166.205 46.5159 166.205 46.5718V49.3665C166.205 49.4783 166.177 49.5621 166.094 49.618C166.01 49.7019 165.898 49.7578 165.73 49.7857C165.562 49.8416 165.338 49.8695 165.086 49.8695C164.835 49.8975 164.527 49.8975 164.191 49.8975C163.939 49.8975 163.716 49.8416 163.548 49.7578C163.38 49.6739 163.24 49.5342 163.156 49.3665C163.072 49.1988 162.988 49.0032 162.96 48.7796C162.932 48.5561 162.904 48.3045 162.904 48.0251V46.5718C162.904 46.5159 162.904 46.46 162.932 46.4321C162.96 46.4042 162.988 46.3762 163.044 46.3483C163.1 46.3203 163.128 46.3203 163.184 46.3203C163.24 46.3203 163.296 46.3203 163.352 46.3203C163.408 46.3203 163.464 46.3203 163.52 46.3203C163.576 46.3203 163.632 46.3483 163.66 46.3483C163.716 46.3762 163.744 46.4042 163.772 46.4321C163.8 46.46 163.8 46.5159 163.8 46.5718V48.1927C163.8 48.3604 163.8 48.4722 163.828 48.6119C163.828 48.7237 163.855 48.8355 163.911 48.8914C163.939 48.9752 164.023 49.0311 164.079 49.0591C164.163 49.087 164.275 49.115 164.387 49.115C164.611 49.115 164.779 49.115 164.891 49.115C165.002 49.115 165.086 49.087 165.142 49.087C165.198 49.0591 165.226 49.0311 165.226 49.0032C165.226 48.9752 165.226 48.9473 165.226 48.8914V46.5718H165.31Z" fill="white"></path>
  <path d="M170.29 49.926C170.234 49.926 170.15 49.926 170.066 49.926C169.982 49.926 169.898 49.926 169.786 49.8981C169.674 49.8701 169.59 49.8701 169.506 49.8422C169.422 49.8142 169.311 49.7863 169.227 49.7584V51.1557C169.227 51.2116 169.227 51.2395 169.199 51.2675C169.199 51.2954 169.171 51.3234 169.143 51.3234C169.115 51.3513 169.087 51.3513 169.059 51.3513C169.031 51.3513 168.975 51.3513 168.947 51.3513C168.891 51.3513 168.807 51.3513 168.751 51.3513C168.667 51.3513 168.611 51.3234 168.527 51.2954C168.471 51.2675 168.415 51.2395 168.359 51.2116C168.303 51.1836 168.275 51.1277 168.275 51.0439V46.9916C168.275 46.9078 168.303 46.824 168.359 46.7401C168.415 46.6842 168.499 46.6004 168.611 46.5724C168.723 46.5165 168.835 46.4886 168.975 46.4327C169.115 46.4048 169.255 46.3768 169.394 46.3489C169.534 46.3209 169.702 46.3209 169.842 46.293C170.01 46.293 170.15 46.293 170.29 46.293C170.541 46.293 170.765 46.3489 170.933 46.4327C171.101 46.5165 171.241 46.6563 171.325 46.824C171.409 46.9916 171.493 47.1873 171.521 47.4108C171.549 47.6344 171.577 47.8859 171.577 48.1654V48.1933C171.577 48.4169 171.549 48.6405 171.521 48.8361C171.493 49.0317 171.409 49.2274 171.325 49.3671C171.241 49.5068 171.101 49.6466 170.933 49.7304C170.765 49.8981 170.569 49.926 170.29 49.926ZM169.227 48.892C169.227 48.9479 169.255 48.9758 169.311 49.0038C169.366 49.0317 169.422 49.0597 169.506 49.0597C169.59 49.0876 169.674 49.0876 169.758 49.0876C169.842 49.0876 169.954 49.1156 170.038 49.1156C170.15 49.1156 170.234 49.1156 170.318 49.1156C170.402 49.1156 170.458 49.0597 170.485 49.0317C170.541 48.9759 170.569 48.92 170.597 48.8082C170.625 48.7243 170.625 48.5846 170.625 48.4449V48.0536C170.625 47.8859 170.625 47.7741 170.625 47.6344C170.625 47.5226 170.597 47.4108 170.541 47.3549C170.485 47.2711 170.43 47.2152 170.346 47.1873C170.262 47.1593 170.15 47.1314 170.038 47.1314C169.87 47.1314 169.73 47.1314 169.618 47.1593C169.506 47.1873 169.422 47.2152 169.366 47.2432C169.311 47.2711 169.255 47.2991 169.255 47.327C169.227 47.3549 169.227 47.3829 169.227 47.4108V48.892Z" fill="white"></path>
  <path d="M175.495 45.0068C175.523 44.9509 175.551 44.895 175.579 44.867C175.607 44.8391 175.634 44.8112 175.69 44.8112C175.718 44.7832 175.774 44.7832 175.802 44.7832C175.858 44.7832 175.914 44.7832 175.97 44.7832C176.026 44.7832 176.11 44.7832 176.166 44.8112C176.222 44.8112 176.278 44.8391 176.334 44.867C176.39 44.895 176.418 44.9229 176.446 44.9509C176.474 44.9788 176.474 45.0347 176.446 45.0906L174.096 49.8974C174.068 49.9533 174.04 50.0092 174.012 50.0372C173.984 50.0651 173.928 50.0931 173.9 50.121C173.844 50.149 173.816 50.149 173.76 50.149C173.704 50.149 173.648 50.149 173.592 50.149C173.536 50.149 173.48 50.149 173.396 50.121C173.34 50.121 173.284 50.0931 173.257 50.0651C173.229 50.0372 173.173 50.0092 173.173 49.9813C173.145 49.9533 173.173 49.8974 173.173 49.8415L175.495 45.0068Z" fill="white"></path>
  <path d="M178.208 48.192C178.236 48.164 178.264 48.164 178.264 48.1361C178.264 48.1081 178.264 48.1082 178.264 48.0802C178.264 48.0523 178.264 48.0523 178.264 48.0243C178.264 47.9964 178.236 47.9964 178.208 47.9684L176.921 47.13C176.837 47.0741 176.781 47.0182 176.725 46.9623C176.669 46.9064 176.641 46.8785 176.641 46.8505C176.613 46.8226 176.613 46.7947 176.613 46.7388C176.613 46.7108 176.613 46.6829 176.613 46.627C176.613 46.5431 176.641 46.4593 176.669 46.4034C176.697 46.3475 176.753 46.3196 176.809 46.2916C176.837 46.2916 176.865 46.2637 176.893 46.2637C176.921 46.2637 176.949 46.2637 176.977 46.2637C177.089 46.2637 177.229 46.2916 177.313 46.3475C177.397 46.4034 177.509 46.4593 177.62 46.5152L178.739 47.2697C178.823 47.3256 178.879 47.3815 178.935 47.4374C178.991 47.4933 179.047 47.5492 179.075 47.6051C179.103 47.661 179.131 47.7169 179.159 47.8007C179.187 47.8566 179.187 47.9405 179.187 47.9964V48.1361C179.187 48.2199 179.187 48.2758 179.159 48.3597C179.131 48.4156 179.131 48.4715 179.075 48.5273C179.047 48.5832 178.991 48.6391 178.935 48.695C178.879 48.7509 178.823 48.8068 178.739 48.8627L177.62 49.6173C177.509 49.7011 177.397 49.757 177.313 49.7849C177.229 49.8129 177.089 49.8688 176.977 49.8688C176.949 49.8688 176.921 49.8688 176.893 49.8688C176.865 49.8688 176.837 49.8688 176.809 49.8408C176.753 49.8129 176.697 49.7849 176.669 49.7291C176.641 49.6732 176.613 49.5893 176.613 49.5055C176.613 49.4775 176.613 49.4496 176.613 49.3937C176.613 49.3657 176.613 49.3378 176.641 49.2819C176.669 49.254 176.697 49.1981 176.725 49.1701C176.781 49.1142 176.837 49.0863 176.921 49.0024L178.208 48.192Z" fill="white"></path>
  <path d="M38.8331 35.1134C41.9387 35.1134 44.4562 32.5985 44.4562 29.4962C44.4562 26.3938 41.9387 23.8789 38.8331 23.8789C35.7275 23.8789 33.21 26.3938 33.21 29.4962C33.21 32.5985 35.7275 35.1134 38.8331 35.1134Z" fill="white"></path>
  <path d="M53.437 17.9535V17.9256C53.381 17.7579 53.3251 17.5902 53.2691 17.4225C52.4578 15.3545 51.3668 13.3703 50.0239 11.4978C46.6668 6.83074 42.0508 3.39331 36.7074 1.54883C36.7914 1.57677 36.8473 1.60472 36.9313 1.63267C39.3931 2.89027 39.8687 6.57922 37.6586 8.39575C36.8753 9.01058 35.8961 9.34594 34.889 9.29004C34.7491 9.29004 34.5813 9.2621 34.4414 9.23415V9.2621C39.7009 11.2184 43.7573 15.3265 45.7716 20.3569L45.8276 20.4687C45.8555 20.5246 45.8555 20.5525 45.8835 20.6084C46.443 21.9499 47.674 22.9559 49.2686 23.0957C51.2828 23.2634 53.1572 21.866 53.5489 19.8818C53.6608 19.2111 53.6328 18.5404 53.437 17.9535Z" fill="white"></path>
  <path d="M34.888 9.29038C35.8672 9.34627 36.8743 9.01091 37.6576 8.39609C39.8957 6.57956 39.3921 2.8906 36.9303 1.633C36.8743 1.60506 36.7904 1.57711 36.7065 1.54916C36.5666 1.49327 36.3987 1.43738 36.2309 1.38149L36.1469 1.35354C34.8321 0.934339 33.4892 0.598979 32.0905 0.375406C24.8167 -0.826299 17.543 0.878445 11.5562 5.18223C5.56942 9.45806 1.62483 15.8299 0.421875 23.0681H0.449851C1.00937 21.1398 2.93969 19.9101 4.95395 20.2455C6.96821 20.5808 8.39497 22.3694 8.31104 24.3816H8.33902C10.1015 13.7618 20.1728 6.55161 30.8036 8.2843C31.9506 8.47993 33.0696 8.75939 34.1607 9.15065C34.2726 9.17859 34.3565 9.20654 34.4684 9.23449C34.6083 9.26243 34.7481 9.29038 34.888 9.29038Z" fill="white"></path>
  <path d="M21.9634 51.9376C21.5997 50.3726 22.2152 48.6958 23.5301 47.7456C24.1176 47.3264 24.789 47.0749 25.5164 47.019V46.9631C25.1527 46.9352 24.789 46.8793 24.4533 46.8234C14.0463 45.1186 6.88449 35.4211 8.2553 25.025C8.2553 24.9971 8.2553 24.9971 8.2553 24.9691V24.8294C8.2553 24.8014 8.2553 24.7735 8.2553 24.7735C8.28328 24.6337 8.28328 24.494 8.28328 24.3543C8.36721 22.3421 6.94044 20.5535 4.92619 20.2182C2.91193 19.8828 0.981602 21.1404 0.422086 23.0408C0.366135 23.1805 0.338159 23.3482 0.310183 23.5159L0.254232 23.8512C-0.696945 30.8379 1.03755 37.7966 5.17797 43.5536C9.45826 49.5342 15.8367 53.4747 23.0825 54.6764C23.586 54.7602 24.0896 54.8161 24.6211 54.872V54.7882C23.3622 54.4249 22.2991 53.307 21.9634 51.9376Z" fill="white"></path>
  <path d="M50.5265 31.3114C48.5961 31.004 46.7218 32.0939 46.0783 33.9384C43.3087 41.959 35.5594 47.3248 27.0268 47.0453C26.9149 47.0453 26.831 47.0453 26.7191 47.0453C26.6911 47.0453 26.6631 47.0453 26.6351 47.0453C26.5792 47.0453 26.5512 47.0453 26.4953 47.0453C26.3274 47.0453 26.1875 47.0174 26.0197 47.0174C25.8518 47.0174 25.684 47.0174 25.4881 47.0453C24.7887 47.1012 24.0893 47.3527 23.5019 47.7719C22.187 48.6942 21.5715 50.371 21.9352 51.9639C22.2709 53.3333 23.306 54.4512 24.6489 54.8704C24.8167 54.9263 25.0125 54.9822 25.2084 55.0101H25.2364C25.2643 55.0101 25.3203 55.0101 25.3483 55.0101C25.4322 55.0101 25.5161 55.0381 25.628 55.0381C32.0624 55.5132 38.385 53.7525 43.6724 49.9518C48.3723 46.5982 51.8134 41.959 53.6598 36.6212C54.471 34.2178 52.9883 31.7026 50.5265 31.3114Z" fill="white"></path>
</svg>
